<svg width="401" height="400" fill="none" xmlns="http://www.w3.org/2000/svg"><path d="M200.98 0l27.22 28.142L262.784 9.79l17.191 35.176 38.563-6.768 5.479 38.766 38.767 5.48-6.768 38.563 35.176 17.191-18.354 34.583L400.98 200l-28.142 27.22 18.354 34.583-35.176 17.191 6.768 38.563-38.767 5.48-5.479 38.766-38.563-6.768-17.191 35.176-34.584-18.353L200.98 400l-27.219-28.142-34.584 18.353-17.191-35.176-38.563 6.768-5.48-38.766-38.766-5.48 6.768-38.563-35.176-17.191 18.354-34.583L.98 200l28.143-27.22-18.354-34.583 35.176-17.191-6.768-38.563 38.767-5.48 5.48-38.766 38.562 6.768 17.191-35.176 34.584 18.353L200.98 0z" fill="#fff"/></svg>