<svg width="141" height="168" viewBox="0 0 141 168" fill="none" xmlns="http://www.w3.org/2000/svg">
<path d="M43.0353 51.3803C43.8685 43.586 51.8158 37.0211 57.6761 32.4782C64.2392 27.3977 71.4885 23.3728 79.3487 20.6878C93.3079 15.9107 116.231 14.7894 117.298 34.771C118.167 50.9677 106.777 65.0331 95.7958 75.6123C81.9457 88.9654 65.8266 99.7238 50.8436 111.714C34.957 124.423 20.2285 138.403 9.70489 155.998C5.41449 163.172 14.6371 169.669 20.9187 166.095C53.6402 147.497 92.3687 140.34 129.576 146.001C139.468 147.505 142.866 132.276 132.933 130.764C102.549 126.138 71.6715 129.088 42.9879 139.133L42.7402 139.376C65.653 117.047 95.4547 101.586 116.084 76.772C128.376 61.9684 138.517 40.1278 129.799 21.098C120.426 0.640491 95.641 -0.714224 76.7306 5.12347C66.3243 8.33249 56.3059 13.594 47.8329 20.4469C39.3694 27.2892 29.0296 36.543 27.7987 48.0232C27.3468 52.2025 29.3063 56.3457 33.7431 57.3148C37.5014 58.1392 42.585 55.5897 43.0353 51.3803Z" fill="#B531E3"/>
</svg>
