<svg width="43" height="54" viewBox="0 0 43 54" fill="none" xmlns="http://www.w3.org/2000/svg">
<path d="M13.2115 17.9241C13.6325 15.356 15.7683 9.16654 19.3966 11.7688C22.366 13.9127 23.3426 20.4319 21.8394 23.5494C20.1159 27.007 16.4991 29.1677 13.432 31.2174C9.82814 33.6237 6.38682 36.1037 3.7136 39.611C0.745258 43.5445 4.04035 48.8745 8.73323 47.5608C17.5779 45.2084 26.7653 46.3694 34.9331 50.787C40.4032 53.7033 44.7054 44.9365 39.3145 42.016C28.862 36.4041 17.129 35.13 5.78182 38.1886C7.42722 40.8126 9.15606 43.5144 10.8015 46.1384C15.1085 40.4922 22.0451 38.0754 26.8528 32.8957C32.1931 27.2775 33.3019 19.6635 30.6204 12.4125C28.2984 5.96387 23.2407 0.315662 16.0066 1.5982C9.08479 2.78225 5.12861 9.06711 3.97255 15.7801C2.87417 22.0795 12.1923 24.2193 13.2115 17.9241Z" fill="#B531E3"/>
</svg>
