<svg width="39" height="62" viewBox="0 0 39 62" fill="none" xmlns="http://www.w3.org/2000/svg">
<g clip-path="url(#clip0)">
<path d="M11.1571 28.8354C18.0534 24.0907 23.0195 16.7154 25.0344 8.31779C21.895 7.61868 18.8423 6.84227 15.7823 6.1501C14.9592 18.3022 15.0243 30.3622 15.804 42.4848C16.1968 48.9707 25.6438 47.0808 25.2511 40.5948C24.5491 29.4128 24.5691 18.2092 25.3906 6.99071C25.7902 1.50785 17.5205 -0.913445 16.1385 4.82303C14.4871 11.8093 10.8964 17.1827 5.11346 21.0911C2.90147 22.5953 2.97421 26.3368 4.48697 28.2519C6.2011 30.609 8.94516 30.3397 11.1571 28.8354Z" fill="#B531E3"/>
<path d="M9.43225 56.7824C14.1862 50.9165 22.7327 52.0037 29.0852 52.5595C35.1995 53.0945 36.084 42.9851 29.9697 42.4501C19.5674 41.5401 8.9825 41.8025 1.62354 50.9209C-2.41411 55.9157 5.40197 61.6929 9.43225 56.7824Z" fill="#B531E3"/>
</g>
<defs>
<clipPath id="clip0">
<rect width="33" height="58.1818" fill="white" transform="translate(5.17969 0.213379) rotate(5)"/>
</clipPath>
</defs>
</svg>
