<svg width="170" height="177" viewBox="0 0 170 177" fill="none" xmlns="http://www.w3.org/2000/svg">
<path d="M51.281 162.902C28.141 136.422 15.281 101.462 15.691 66.3023C15.861 51.8423 17.931 34.7623 28.531 23.9023C38.061 14.1423 53.531 13.4523 64.491 21.4123C79.771 32.5224 76.041 54.6523 71.121 70.1023C68.481 78.3723 81.661 84.2423 85.381 76.1124C90.701 64.4623 100.231 55.1723 112.311 50.6723C123.351 46.5623 140.441 44.9923 148.891 55.1323C156.901 64.7423 154.091 79.0123 148.011 88.7423C140.071 101.452 126.801 110.782 114.651 119.122C98.541 130.182 81.451 139.722 64.401 149.242C55.631 154.132 63.491 167.612 72.271 162.712C90.131 152.742 108.041 142.752 124.811 131.012C139.531 120.702 155.511 108.982 163.791 92.5223C171.201 77.7923 171.821 59.0523 161.161 45.6723C150.131 31.8123 129.831 29.8623 113.671 33.9423C95.651 38.4723 79.641 51.2823 71.901 68.2423C76.651 70.2423 81.401 72.2523 86.161 74.2523C92.361 54.8123 94.441 31.3523 80.191 14.8023C68.821 1.60235 48.321 -3.30765 32.171 3.12235C13.391 10.5823 4.251 30.0023 1.451 48.9423C-1.559 69.3324 0.411 90.6323 5.891 110.452C12.391 133.942 24.231 155.602 40.251 173.932C46.871 181.502 57.871 170.432 51.281 162.902Z" fill="#B531E3"/>
</svg>
