<svg width="239" height="221" viewBox="0 0 239 221" fill="none" xmlns="http://www.w3.org/2000/svg">
<path d="M225.806 113.357C223.241 101.807 219.689 84.9983 206.76 81.358C209.149 75.2098 209.241 67.8419 209.294 61.5775C209.372 52.7498 208.78 43.7459 207.246 35.0501C205.925 27.5557 202.392 19.5576 194.867 16.4979C186.63 13.1473 177.982 17.3123 172.072 23.127C159.751 35.2607 157.273 53.9753 165.009 69.2845C167.783 74.7661 174.154 74.3841 177.624 71.2031C178.178 77.2793 179.824 83.508 183.616 87.9673C183.783 88.1614 183.963 88.3224 184.138 88.5049C178.602 93.4513 173.979 99.8818 170.486 105.179C164.816 113.794 160.632 123.123 157.801 132.923C157.714 132.776 157.647 132.625 157.561 132.488C151.417 121.945 141.803 110.785 129.924 108.371C135.372 104.486 139.765 98.7052 142.246 92.2158C148.331 76.3379 147.368 57.2857 142.396 41.2961C139.787 32.8915 136.356 22.5908 127.878 18.45C119.769 14.4982 108.447 15.8851 102.462 22.6573C99.7017 25.7741 101.182 31.0573 104.212 33.3865C93.4006 39.8521 87.959 54.9463 86.5272 66.6935C84.6278 82.2394 88.7954 102.016 103.508 110.246C105.681 111.457 107.869 112.29 110.029 112.793C100.028 119.247 93.1354 130.719 89.076 141.903C86.3821 134.976 81.8732 129.1 74.2827 125.615C71.4774 124.332 68.5359 123.602 65.5561 123.346C66.0029 122.079 66.3623 120.777 66.6492 119.467C69.5092 106.432 71.9911 88.1435 63.9586 76.4507C59.7515 70.3282 52.1998 67.4661 45.2352 70.9281C38.7844 74.137 35.9977 80.6194 34.3632 87.2438C33.779 89.6316 33.9958 92.071 35.1107 94.0169C31.4511 104.36 33.0839 117.881 37.9533 126.608C38.9332 128.365 40.1883 130.012 41.6578 131.378C21.1047 148.822 26.6182 178.881 29.8207 202.169C31.1899 212.122 46.5494 209.393 45.1837 199.46C42.8984 182.814 37.7103 162.029 48.3237 147.068C52.1223 141.718 59.0291 137.525 65.7943 139.094C74.9537 141.225 76.1612 151.299 77.0366 159.085C77.5012 163.217 80.4031 165.163 83.5695 165.325C83.1393 168.184 82.7699 171.041 82.4219 173.905C81.3008 183.384 78.7852 194.571 81.5279 203.906C82.7184 207.951 86.083 211.023 90.5639 210.233C94.3554 209.565 98.0849 205.262 96.8909 201.197C94.7868 194.044 96.8155 185.451 97.6316 178.159C98.4285 171.103 99.2561 163.991 100.837 157.061C103.516 145.308 109.02 131.025 120.292 124.925C132.064 118.554 142.474 136.357 146.52 145.077C153.03 159.079 154.642 174.727 156.034 189.936C156.953 199.928 172.307 197.17 171.397 187.227C170.322 175.546 168.941 163.564 165.717 152.191C168.08 151.257 170.044 149.265 170.599 146.131C172.382 136.089 175.923 126.224 181.171 117.46C183.846 112.998 186.89 108.724 190.301 104.802C192.666 102.09 197.787 95.6025 201.951 96.2391C205.112 96.7175 206.648 102.143 207.46 104.62C209.365 110.468 210.652 116.618 211.75 122.669C214.095 135.568 214.886 148.578 214.218 161.663C213.709 171.673 229.245 173.168 229.75 163.138C230.626 146.453 229.421 129.657 225.806 113.357ZM50.9793 116.98C50.6116 115.989 50.1431 114.945 49.97 114.193C48.6292 108.144 47.8523 100.513 52.0627 95.4246C52.6658 94.6989 53.0946 93.9632 53.382 93.2322C54.0398 99.7267 53.1594 106.655 52.1106 112.973C52.0324 113.393 51.4696 115.269 50.9793 116.98ZM51.5589 86.0599C51.5733 86.0268 51.5797 86.0054 51.5942 85.9724C51.6295 86.0575 51.6828 86.1294 51.7181 86.2145C51.6585 86.1641 51.6087 86.112 51.5589 86.0599ZM101.759 76.4872C101.319 70.4215 102.305 64.2059 104.432 58.5304C106.281 53.5841 109.343 46.647 115.176 45.8113C122.852 44.7118 122.981 35.3065 118.066 31.7357C126.738 32.5421 129.549 52.69 130.294 58.9864C131.597 69.9466 131.55 87.8772 121.738 95.4054C109.438 104.834 102.435 85.903 101.759 76.4872ZM178.588 40.1032C180.189 37.0286 187.084 27.3543 190.387 32.6107C192.294 35.6556 192.319 40.3426 192.732 43.7831C193.239 47.9789 193.627 52.1956 193.732 56.4214C193.787 58.402 193.988 65.8198 193.359 71.1804C193.01 69.1401 192.898 67.068 192.967 64.9843C193.287 56.1445 181.211 53.938 178.138 60.4708C175.45 53.9181 175.213 46.5878 178.588 40.1032ZM195.173 77.3796C195.718 77.5882 195.398 78.0203 195.173 77.3796V77.3796Z" fill="#B531E3"/>
</svg>
