<svg width="140" height="155" viewBox="0 0 140 155" fill="none" xmlns="http://www.w3.org/2000/svg">
<path d="M138.131 63.2257C140.779 72.0705 136.959 80.5836 133.373 88.5466C130.065 95.8983 126.115 102.962 121.61 109.641C112.815 122.669 102.137 134.77 89.0623 143.58C77.4897 151.377 63.6946 155.891 49.6912 154.852C35.8093 153.822 20.0522 149.212 11.2838 137.625C2.42859 125.925 -0.497109 109.633 0.0671951 95.2348C0.657544 80.0597 5.18934 65.1029 12.8552 52.0321C27.0322 27.8638 52.3565 8.29691 79.6688 1.99289C94.2626 -1.36868 110.167 -1.11547 122.842 7.76429C134.675 16.0591 144.503 29.1648 137.844 43.9818C136.342 47.3259 131.463 48.1642 128.581 46.4266C125.212 44.401 124.639 40.4806 126.15 37.1103C128.711 31.4087 123.042 25.5238 119.231 22.1099C114.508 17.8926 108.865 14.8803 102.58 13.9199C89.3314 11.8942 75.0849 16.4432 63.4776 22.5639C43.8138 32.9367 26.6416 49.8493 18.6892 70.9966C14.4266 82.3298 12.5687 94.5537 14.0012 106.629C15.3121 117.683 19.2188 130.108 29.576 135.635C50.3076 146.688 73.3139 140.611 90.1041 125.672C98.7857 117.945 106.217 108.795 112.407 98.963C115.628 93.8552 118.519 88.5291 121.063 83.0458C123.276 78.2611 126.68 72.219 125.082 66.8492C122.547 58.4147 135.622 54.8524 138.131 63.2257ZM63.9811 92.8336C63.6426 94.5101 63.2953 96.1865 62.9654 97.8629C70.6226 97.7145 78.3058 98.0375 85.9716 98.4217C94.6619 98.8495 94.6793 112.479 85.9716 112.043C77.455 111.623 68.8776 111.204 60.3609 111.51C59.6317 115.465 58.9111 119.429 58.2252 123.393C56.7233 132.029 43.6749 128.344 45.1681 119.77C45.5761 117.447 46.0102 115.125 46.4269 112.802C43.6922 113.239 40.9662 113.78 38.2576 114.487C29.8017 116.679 26.2249 103.538 34.6547 101.355C39.4209 100.124 44.2218 99.2948 49.0575 98.7447C49.3613 97.1818 49.6565 95.6189 49.9604 94.0648C47.6337 94.3529 45.3157 94.7283 42.9977 95.1824C34.4724 96.8675 30.8522 83.7356 39.3948 82.0504C43.8311 81.1773 48.2935 80.5225 52.7819 80.1121C53.8584 74.9344 54.9523 69.7655 56.0809 64.5965C58.1211 55.2453 58.8677 45.5448 66.412 38.8304C76.6042 29.7585 93.7851 28.8766 103.543 39.0661C114.465 50.4692 109.264 67.0588 99.4715 77.0823C94.3841 82.2862 88.1247 86.3113 81.3443 88.8609C75.7708 90.9739 69.8412 91.8121 63.9811 92.8336ZM68.1049 72.9786C67.6969 74.8646 67.3062 76.7593 66.9068 78.6452C70.8656 77.9467 74.7724 77.0649 78.4186 75.4932C84.5218 72.8564 90.2169 68.2288 93.8285 62.6145C96.8931 57.8472 97.414 50.8796 92.3352 47.2823C87.6993 43.9993 80.7627 44.9685 76.3524 48.2253C75.1544 49.1071 74.0344 50.4692 73.7219 50.9407C73.2878 51.5956 72.9666 52.329 72.5238 52.9664C72.4717 53.045 72.4283 53.0974 72.3936 53.1585C72.3936 53.1934 72.3849 53.2371 72.3763 53.2894C71.2824 59.8991 69.52 66.4301 68.1049 72.9786Z" fill="#B531E3"/>
</svg>
