<svg width="401" height="400" viewBox="0 0 401 400" fill="none" xmlns="http://www.w3.org/2000/svg">
<path d="M200.98 0L228.2 28.1422L262.784 9.7887L279.975 44.9649L318.538 38.1966L324.017 76.9634L362.784 82.4429L356.016 121.006L391.192 138.197L372.838 172.78L400.98 200L372.838 227.22L391.192 261.803L356.016 278.994L362.784 317.557L324.017 323.037L318.538 361.803L279.975 355.035L262.784 390.211L228.2 371.858L200.98 400L173.761 371.858L139.177 390.211L121.986 355.035L83.4234 361.803L77.9439 323.037L39.1771 317.557L45.9453 278.994L10.7692 261.803L29.1227 227.22L0.980469 200L29.1227 172.78L10.7692 138.197L45.9453 121.006L39.1771 82.4429L77.9439 76.9634L83.4234 38.1966L121.986 44.9649L139.177 9.7887L173.761 28.1422L200.98 0Z" fill="white"/>
</svg>
