<svg width="235" height="202" viewBox="0 0 235 202" fill="none" xmlns="http://www.w3.org/2000/svg">
<path d="M226.695 43.3965C220.651 42.1785 214.674 39.6622 209.002 37.0618C208.928 30.8494 209.457 24.5685 210.081 18.3927C210.679 12.7162 203.714 8.04529 198.748 11.0896C187.06 18.1876 175.925 26.2158 164.705 33.9392C161.589 36.0791 157.979 38.0929 155.141 40.6479C151.778 43.676 152.136 48.3011 152.221 52.4112C152.37 57.2255 152.723 61.9505 152.577 66.6493C143.028 73.0583 133.301 79.0575 123.2 84.5364C124.986 81.025 126.773 77.5137 128.659 74.0076C133.624 65.2554 120.556 56.6597 115.591 65.4119C109.302 76.498 104.48 88.2617 98.2907 99.353C95.4221 104.41 98.1777 111.063 104.369 111.388C105.168 111.429 105.867 111.466 106.666 111.508C100.964 115.215 92.7388 115.485 88.0021 110.33C85.2579 107.282 85.4777 103.088 87.0694 99.4659C87.8574 97.8048 88.9084 96.8585 90.2694 95.7282C90.3745 95.6336 90.3745 95.6336 90.4796 95.539C91.084 95.4705 92.5083 95.0445 92.6081 95.0497C102.499 93.5653 99.1953 78.2714 89.2988 79.8557C71.7342 82.5401 65.2696 106.535 75.6003 119.593C87.9919 135.363 111.642 131.195 123.197 117.081C124.053 116.024 124.521 114.747 124.489 113.443C127.874 113.821 131.359 114.204 134.754 114.382C144.735 115.005 145.651 99.4318 135.571 98.8033C133.773 98.7091 131.981 98.515 130.188 98.321C141.214 92.3899 151.772 85.8334 162.15 78.8671C165.903 79.8649 169.646 81.0624 173.393 82.16C177.535 83.3784 182.419 85.7372 186.628 83.7548C190.733 81.8671 194.679 79.1699 198.505 76.867C209.152 70.5155 219.236 63.4336 229.421 56.3569C233.982 53.3915 232.146 44.4832 226.695 43.3965ZM182.11 68.6977C180.927 68.3354 179.745 67.973 178.462 67.6053C181.484 65.3604 184.605 63.1207 187.627 60.8758C191.064 58.3522 190.852 52.8335 188.203 49.8908C185.174 46.5277 180.555 46.7863 177.218 49.3151C174.196 51.5601 171.075 53.7998 168.053 56.0447C167.947 54.2367 167.942 52.4339 167.936 50.6312C176.36 44.6639 184.889 38.6019 193.502 32.8448C193.45 35.7461 193.498 38.6526 193.646 41.5643C193.841 45.4799 195.524 47.7711 198.945 49.3523C201.584 50.5921 204.318 51.937 207.061 53.0822C198.863 58.5607 190.576 63.8342 182.11 68.6977ZM101.749 50.5671C105.906 51.486 107.931 56.7992 106.639 60.4366C105.21 64.7677 100.927 66.2456 96.7694 65.3267C81.7211 62.0347 67.6268 71.1095 59.6722 83.41C52.1536 95.0324 49.5658 110.018 56.212 122.683C62.5007 134.528 74.6068 142.372 87.3478 145.744C100.289 149.126 114.106 147.246 125.862 140.753C135.558 135.353 147.849 124.381 149.365 112.644C150.687 102.7 166.266 103.516 164.944 113.461C162.425 132.855 144.916 149.762 127.6 157.266C94.3018 171.643 48.0309 156.501 38.1731 119.134C33.2337 100.65 40.4928 80.6024 52.8358 66.7294C65.3837 52.7669 83.4363 46.5032 101.749 50.5671ZM134.121 32.8371C137.28 35.6062 136.378 41.3668 133.545 43.822C130.082 46.8449 125.72 46.0154 122.56 43.2463C103.883 27.0466 70.4032 29.5979 50.9909 42.6999C30.5381 56.5484 19.638 83.0142 21.5723 107.249C23.5542 132.487 38.9486 155.925 60.611 168.676C84.3129 182.636 115.133 183.049 139.071 169.584C160.633 157.495 176.338 134.886 180.217 110.556C180.836 106.383 183.82 102.934 188.414 103.175C192.309 103.379 196.415 107.199 195.795 111.372C190.416 145.237 167.559 176.284 135.065 188.7C104.31 200.407 68.0068 195.7 42.0591 174.914C18.2299 155.74 3.49614 125.428 6.01209 94.617C8.44953 65.3044 25.7295 35.568 53.4884 23.7046C79.3029 12.6404 112.384 13.8734 134.121 32.8371Z" fill="#B531E3"/>
</svg>
