<svg width="69" height="27" viewBox="0 0 69 27" fill="none" xmlns="http://www.w3.org/2000/svg">
<path d="M3.84912 13.6734V26.1946H7.4843V13.2695L3.84912 13.6734Z" fill="white"/>
<path d="M0.71875 9.83556V13.4707L10.6145 12.36V8.42188L0.71875 9.83556Z" fill="white"/>
<path d="M11.9272 8.22071V26.1947H15.7644V7.71582L11.9272 8.22071Z" fill="white"/>
<path d="M16.4712 7.61446V11.7545L21.924 11.1487V6.80664L16.4712 7.61446Z" fill="white"/>
<path d="M16.4712 14.7834V19.0244L20.1064 18.8225V14.4805L16.4712 14.7834Z" fill="white"/>
<path d="M16.4712 22.0541V26.1942H21.924V21.9531L16.4712 22.0541Z" fill="white"/>
<path d="M36.2632 4.7879V26.1951H41.2111V4.08105L36.2632 4.7879Z" fill="white"/>
<path d="M42.1191 3.98048V8.92836L49.3895 8.12054V2.9707L42.1191 3.98048Z" fill="white"/>
<path d="M42.1191 12.5621V17.611L46.966 17.409V12.1582L42.1191 12.5621Z" fill="white"/>
<path d="M42.1196 21.2459V26.1938H49.39V21.0439L42.1196 21.2459Z" fill="white"/>
<path d="M23.4385 6.60489V26.1945H27.7805V5.99902L23.4385 6.60489Z" fill="white"/>
<path d="M28.5889 21.7508V26.1938H34.8495V21.5488L28.5889 21.7508Z" fill="white"/>
<path d="M65.748 2.66673C64.1324 1.15207 61.8099 0.546209 59.2855 0.950118V6.40289C60.2953 6.30191 61.1031 6.70582 61.507 7.51364C62.1129 8.72536 61.507 10.543 60.0933 12.2596C57.8718 14.885 52.0151 20.1358 52.0151 20.1358L60.3962 19.8329C65.5461 14.784 67.3637 11.7547 67.6666 8.01852C67.9695 5.99898 67.2627 4.08041 65.748 2.66673Z" fill="white"/>
<path d="M51.0049 21.0439V26.1938H68.07V20.5391L51.0049 21.0439Z" fill="white"/>
<path d="M58.3774 1.05078C53.4295 2.06055 51.006 5.69573 51.309 11.6534L56.5598 11.1485C56.2569 7.91723 57.3676 7.10942 58.3774 6.60453V1.05078Z" fill="white"/>
</svg>
