<svg width="96" height="38" viewBox="0 0 96 38" fill="none" xmlns="http://www.w3.org/2000/svg">
<path fill-rule="evenodd" clip-rule="evenodd" d="M27.0933 10.9063H29.8197C34.1617 10.9063 37.6959 14.4405 37.6959 18.7825C37.6959 23.1246 34.1617 26.6588 29.8197 26.6588H27.0933V29.3852C27.0933 33.7272 23.5591 37.2614 19.2171 37.2614C14.8751 37.2614 11.3409 33.7272 11.3409 29.3852V26.6588H8.61451C4.27248 26.6588 0.738281 23.1246 0.738281 18.7825C0.738281 14.4405 4.27248 10.9063 8.61451 10.9063H11.2397V14.2383H8.51329C8.0084 14.2383 7.60449 14.6422 7.60449 15.1471C7.60449 15.652 8.0084 16.0559 8.51329 16.0559H11.3406V17.8735H8.51329C8.0084 17.8735 7.60449 18.2774 7.60449 18.7823C7.60449 19.2872 8.0084 19.6911 8.51329 19.6911H11.3406V21.5087H8.51329C8.0084 21.5087 7.60449 21.9126 7.60449 22.4175C7.60449 22.9224 8.0084 23.3263 8.51329 23.3263H11.3406V26.6585H14.6729V29.4859C14.6729 29.9908 15.0768 30.3947 15.5817 30.3947C16.0866 30.3947 16.4905 29.9908 16.4905 29.4859V26.6585H18.3081V29.4859C18.3081 29.9908 18.712 30.3947 19.2169 30.3947C19.7218 30.3947 20.1257 29.9908 20.1257 29.4859V26.6585H21.9433V29.4859C21.9433 29.9908 22.3472 30.3947 22.8521 30.3947C23.3569 30.3947 23.7608 29.9908 23.7608 29.4859V26.6585H27.0931V23.3263H29.9205C30.4253 23.3263 30.8293 22.9224 30.8293 22.4175C30.8293 21.9126 30.4253 21.5087 29.9205 21.5087H27.0931V19.6911H29.8195C30.3244 19.6911 30.7283 19.2872 30.7283 18.7823C30.7283 18.2774 30.3244 17.8735 29.8195 17.8735H26.9921V16.0559H29.8195C30.3244 16.0559 30.7283 15.652 30.7283 15.1471C30.7283 14.6422 30.3244 14.2383 29.8195 14.2383H26.9921V10.9061H23.6599V8.07872C23.6599 7.57383 23.256 7.16992 22.7511 7.16992C22.2462 7.16992 21.8423 7.57383 21.8423 8.07872V10.9061H20.0247V8.07872C20.0247 7.57383 19.6208 7.16992 19.1159 7.16992C18.611 7.16992 18.2071 7.57383 18.2071 8.07872V10.9061H16.3895V8.07872C16.3895 7.57383 15.9856 7.16992 15.4807 7.16992C14.9758 7.16992 14.5719 7.57383 14.5719 8.07872V10.9061H11.3409V8.17993C11.3409 3.83791 14.8751 0.303711 19.2171 0.303711C23.5591 0.303711 27.0933 3.83791 27.0933 8.17993V10.9063Z" fill="white"/>
<path d="M62.7378 25.7499L64.4544 23.9323C64.7574 23.6294 64.6564 23.1245 64.3535 22.8216C64.0505 22.5186 63.5456 22.6196 63.2427 22.9226L61.829 24.6392L60.4153 22.9226C60.1124 22.6196 59.6075 22.5186 59.3046 22.8216C59.0017 23.1245 58.9007 23.6294 59.2036 23.9323L60.9202 25.7499L58.9007 27.8704C58.5977 28.1734 58.6987 28.6783 59.0017 28.9812C59.3046 29.2841 59.8095 29.1831 60.1124 28.8802L61.829 26.8607L63.5456 28.8802C63.8486 29.1831 64.3535 29.2841 64.6564 28.9812C64.9593 28.6783 65.0603 28.1734 64.7574 27.8704L62.7378 25.7499Z" fill="white"/>
<path d="M49.409 22.6191H44.3602C43.9563 22.6191 43.6533 22.9221 43.6533 23.326C43.6533 23.7299 43.9563 24.0328 44.3602 24.0328H46.1778V28.3748C46.1778 28.7788 46.5817 29.1827 46.9856 29.1827C47.3895 29.1827 47.7934 28.7788 47.7934 28.3748V24.0328H49.51C49.9139 24.0328 50.2168 23.7299 50.2168 23.326C50.2168 22.9221 49.8129 22.6191 49.409 22.6191Z" fill="white"/>
<path d="M71.5229 22.6191C71.119 22.6191 70.7151 23.023 70.7151 23.427V25.1436H67.9887V23.427C67.9887 23.023 67.5848 22.6191 67.1809 22.6191C66.777 22.6191 66.373 23.023 66.373 23.427V28.4758C66.373 28.8797 66.777 29.2836 67.1809 29.2836C67.5848 29.2836 67.9887 28.8797 67.9887 28.4758V26.5573H70.7151V28.4758C70.7151 28.8797 71.119 29.2836 71.5229 29.2836C71.9268 29.2836 72.3307 28.8797 72.3307 28.4758V23.427C72.3307 22.9221 71.9268 22.6191 71.5229 22.6191Z" fill="white"/>
<path d="M85.7612 25.7494L87.4778 23.9318C87.7807 23.6289 87.6797 23.124 87.3768 22.8211C87.0739 22.5182 86.569 22.6191 86.266 22.9221L84.4485 25.1436H83.7416V23.427C83.7416 23.023 83.3377 22.6191 82.9338 22.6191C82.5299 22.6191 82.126 23.023 82.126 23.427V28.3748C82.126 28.7788 82.5299 29.1827 82.9338 29.1827C83.3377 29.1827 83.7416 28.7788 83.7416 28.3748V26.4563H84.3475L86.367 28.8797C86.67 29.2836 87.2758 29.2836 87.5787 28.9807C87.8817 28.6778 87.8817 28.2739 87.6797 27.9709L85.7612 25.7494Z" fill="white"/>
<path d="M57.8911 10.6025C57.4871 10.6025 57.0832 11.0064 57.0832 11.4104V14.3387C57.0832 15.2475 56.3764 15.9543 55.4676 15.9543C54.5588 15.9543 53.852 15.2475 53.852 14.3387V11.4104C53.852 11.0064 53.4481 10.6025 53.0441 10.6025C52.6402 10.6025 52.2363 11.0064 52.2363 11.4104V14.2377C52.2363 15.9543 53.65 17.368 55.3666 17.368C56.1744 17.368 56.7803 17.0651 57.2852 16.5602C57.1842 17.57 56.4774 18.3778 55.3666 18.3778C54.8617 18.3778 54.4578 18.2768 53.9529 18.0749C53.751 17.9739 53.4481 17.9739 53.2461 18.1758C52.9432 18.4788 53.0441 18.8827 53.3471 19.0846C54.0539 19.4885 54.6598 19.6905 55.5686 19.6905C57.3862 19.6905 58.7998 18.1758 58.7998 16.4592V11.4104C58.6989 10.9055 58.295 10.6025 57.8911 10.6025Z" fill="white"/>
<path d="M63.344 7.87695C62.5361 7.87695 61.8293 8.07891 61.1225 8.48282C60.8195 8.68477 60.7186 9.18966 61.0215 9.39161C61.2234 9.59357 61.5264 9.59357 61.7283 9.49259C62.2332 9.29063 62.6371 9.18966 63.142 9.18966C64.1518 9.18966 64.7576 9.8965 64.9596 10.9063C64.4547 10.5024 63.7479 10.3004 63.041 10.3004C61.4254 10.3004 60.1127 11.6131 60.0117 13.2287V14.2385C60.0117 15.9551 61.4254 17.3688 63.243 17.3688C64.9596 17.3688 66.3733 16.0561 66.4743 14.3395V14.1375V11.8151C66.5752 9.39161 65.1616 7.87695 63.344 7.87695ZM64.9596 14.3395C64.9596 15.2483 64.2528 15.9551 63.344 15.9551C62.4352 15.9551 61.7283 15.2483 61.7283 14.3395V13.3297C61.7283 12.4209 62.4352 11.7141 63.344 11.7141C64.2528 11.7141 64.9596 12.4209 64.9596 13.3297V14.3395Z" fill="white"/>
<path d="M54.3573 22.1143C52.6407 22.1143 51.328 23.5279 51.2271 25.2446V25.7494C51.2271 27.668 52.7417 29.2836 54.6603 29.2836C55.4681 29.2836 56.3769 29.0817 56.9828 28.6778C57.3867 28.4758 57.3867 27.87 57.0837 27.567C56.8818 27.3651 56.4779 27.2641 56.2759 27.4661C55.872 27.668 55.3671 27.87 54.7613 27.87C53.7515 27.87 53.0446 27.3651 52.8427 26.4563H56.6798C57.1847 26.4563 57.5886 26.0524 57.5886 25.5475V25.4465C57.5886 23.5279 56.074 22.1143 54.3573 22.1143ZM52.7417 25.0426C52.7417 24.0328 53.6505 23.225 54.6603 23.427C55.4681 23.6289 55.973 24.2348 55.973 25.0426H52.7417Z" fill="white"/>
<path d="M49.7121 7.97754C49.3081 7.97754 49.0052 8.28047 48.9042 8.68438V10.9059C48.9042 12.0166 47.9954 12.9254 46.8847 12.9254C45.7739 12.9254 44.8651 12.0166 44.8651 10.9059V8.78536C44.8651 8.38145 44.4612 7.97754 44.0573 7.97754C43.6534 7.97754 43.2495 8.38145 43.2495 8.78536V11.1078C43.2495 12.9254 44.7642 14.4401 46.6827 14.4401C47.4906 14.4401 48.2984 14.1371 48.9042 13.7332V16.3586C48.9042 16.7626 49.3081 17.1665 49.7121 17.1665C50.116 17.1665 50.5199 16.7626 50.5199 16.3586V8.78536C50.5199 8.38145 50.2169 7.97754 49.7121 7.97754Z" fill="white"/>
<path d="M74.5529 13.5311C74.5529 11.7135 73.1392 10.2998 71.3216 10.2998C69.504 10.2998 68.0903 11.7135 68.0903 13.5311V14.2379C68.0903 16.0555 69.504 17.4692 71.3216 17.4692C73.1392 17.4692 74.5529 16.0555 74.5529 14.2379V13.5311ZM72.9372 14.3389C72.9372 15.2477 72.2304 15.9545 71.3216 15.9545C70.4128 15.9545 69.706 15.2477 69.706 14.3389V13.3291C69.706 12.4203 70.4128 11.7135 71.3216 11.7135C72.2304 11.7135 72.9372 12.4203 72.9372 13.3291V14.3389Z" fill="white"/>
<path d="M79.7021 22.5186C79.2982 22.5186 78.8943 22.8215 78.8943 23.2254V26.1537C78.8943 27.0625 78.1874 27.7694 77.2786 27.7694C76.3698 27.7694 75.663 27.0625 75.663 26.1537V23.3264C75.663 22.9225 75.2591 22.5186 74.8552 22.5186C74.4513 22.5186 74.0474 22.9225 74.0474 23.3264V26.6586C74.0474 28.1733 75.2591 29.284 76.7738 29.284C77.6825 29.284 78.4904 28.8801 78.9952 28.1733V28.3752C78.9952 28.7791 79.2982 29.0821 79.7021 29.0821C80.106 29.0821 80.4089 28.7791 80.4089 28.3752V28.1733V27.8703V27.0625V23.3264C80.5099 22.9225 80.106 22.5186 79.7021 22.5186Z" fill="white"/>
<path d="M94.8491 22.5186C94.4451 22.5186 94.0412 22.8215 94.0412 23.2254V26.1537C94.0412 27.0625 93.3344 27.7694 92.4256 27.7694C91.5168 27.7694 90.81 27.0625 90.81 26.1537V23.3264C90.81 22.9225 90.4061 22.5186 90.0022 22.5186C89.5982 22.5186 89.1943 22.9225 89.1943 23.3264V26.6586C89.1943 28.1733 90.4061 29.284 91.9207 29.284C92.8295 29.284 93.6373 28.8801 94.1422 28.1733V28.3752C94.1422 28.7791 94.4451 29.0821 94.8491 29.0821C95.253 29.0821 95.5559 28.7791 95.5559 28.3752V28.1733V27.8703V27.0625V23.3264C95.6569 22.9225 95.3539 22.5186 94.8491 22.5186Z" fill="white"/>
</svg>
