<svg width="78" height="59" viewBox="0 0 78 59" fill="none" xmlns="http://www.w3.org/2000/svg">
<path d="M27.2409 23.8508C28.2506 23.245 29.4623 21.5284 28.6545 20.3166C28.2506 20.9225 27.3418 21.1245 26.635 21.3264C25.9281 21.5284 25.2213 22.0333 24.5145 22.2352C24.5145 21.7303 24.4135 21.0235 23.9086 20.7205C23.1008 21.3264 23.3027 22.6391 23.6057 23.4469C22.4949 22.942 21.6871 21.3264 21.5861 20.2157C21.4851 19.0039 22.4949 18.0951 23.2018 17.0854C24.6154 14.9648 28.9575 14.6619 30.4721 14.5609C32.7946 13.3492 33.8044 12.6424 35.9249 11.9355C38.0454 11.2287 39.3581 11.6326 41.5796 11.6326C42.5894 11.6326 43.4982 11.6326 44.508 11.9355C45.6187 12.2385 46.7295 12.9453 47.7392 13.5512C48.547 14.0561 49.0519 14.6619 50.0617 14.157C51.0715 13.5512 51.2734 12.1375 51.2734 10.9258C51.0715 8.70426 49.5568 7.39155 48.749 5.47299C48.2441 4.26126 48.2441 2.7466 48.85 1.53487C49.1529 1.02999 49.6578 0.323148 50.2637 0.323148C51.0715 0.22217 51.3744 1.02999 52.0812 1.23194C52.5861 1.4339 54.3027 1.73683 54.2018 1.93878C54.2018 2.03976 52.6871 2.64562 52.2832 2.54465C51.3744 2.44367 50.5666 3.25149 50.6676 4.36224C50.7685 5.77592 51.6773 7.08862 52.4852 8.19937C54.1008 10.7238 53.6969 13.3492 51.9803 15.7727C51.4754 16.4795 50.7685 17.1863 50.4656 17.9942C50.1627 18.6 50.3646 19.1049 50.3646 19.8118C50.3646 20.3166 50.2637 20.8215 50.0617 21.3264C49.6578 22.3362 48.85 23.043 48.0422 23.6489C46.2246 24.9616 44.306 24.3557 42.3874 24.2548C41.3777 24.1538 40.2669 24.0528 39.2571 23.9518C38.0454 23.9518 37.0356 24.2548 35.9249 24.5577C35.0161 24.8606 34.0063 24.7596 33.0975 25.1635C32.2897 25.5675 31.6838 26.4762 31.2799 27.2841C31.078 27.688 30.7751 28.0919 30.6741 28.5968C30.5731 29.1017 30.5731 29.6065 30.3711 30.1114C30.1692 31.1212 29.9672 32.131 29.7653 33.0398C29.6643 33.4437 29.7653 34.0495 29.5633 34.4534C29.3614 34.8574 28.8565 35.0593 28.4526 35.1603C27.7457 35.5642 26.9379 36.271 26.1301 36.574C25.7262 36.6749 25.3223 36.7759 25.0194 36.9779C25.6252 36.372 25.3223 35.3622 26.2311 34.9583C25.8272 33.6456 27.3418 33.8476 27.8467 33.3427C28.3516 32.7368 28.5536 31.3232 28.7555 30.5153C29.1594 29.3036 29.2604 28.0919 29.2604 26.8802C29.2604 26.2743 29.1594 25.6684 29.1594 25.0626C29.1594 24.4567 29.1594 24.4567 29.7653 24.2548C30.5731 23.9518 32.0878 23.6489 32.5926 22.8411C31.7848 23.144 30.7751 23.043 29.9672 23.245C29.2604 23.4469 28.1496 24.2548 27.3418 23.7499L27.2409 23.8508ZM41.8826 25.4665C42.7913 26.7792 42.1855 28.2938 41.9835 28.4958C41.7816 28.7987 41.4786 29.2026 43.2962 30.4144C45.5177 31.828 47.8402 32.8378 49.6578 34.7564C50.0617 35.1603 50.7685 35.5642 50.9705 35.7662C51.3744 36.372 51.1725 36.8769 51.8793 37.2808C52.2832 37.3818 52.5861 37.5837 52.8891 37.1798C53.293 37.9877 55.3125 37.3818 55.9184 37.5837C55.9184 37.2808 55.7164 36.9779 55.6155 36.7759C55.2115 36.372 53.7979 36.372 53.394 36.0691C52.7881 35.6652 52.3842 35.0593 51.8793 34.5544C50.8695 33.4437 49.5568 32.8378 48.3451 31.929C46.8304 30.7173 44.9119 30.2124 44.205 28.6977C43.9021 27.8899 44.205 26.4762 44.205 25.3655C43.5992 25.3655 42.3874 25.2645 41.7816 24.9616L41.8826 25.4665Z" fill="white"/>
<path d="M0.583008 55.3561V45.3594H4.01623C5.42991 45.3594 6.43969 45.5613 7.2475 45.9652C8.05532 46.3691 8.66119 46.975 9.16607 47.7828C9.67096 48.5906 9.87291 49.3985 9.87291 50.4082C9.87291 51.1151 9.77194 51.7209 9.469 52.3268C9.16607 52.9327 8.86314 53.5385 8.35825 53.9424C7.85337 54.4473 7.34848 54.7503 6.64164 55.0532C6.23773 55.1542 5.9348 55.3561 5.63187 55.3561C5.32894 55.4571 4.72307 55.4571 3.81428 55.4571L0.583008 55.3561ZM3.81428 46.6721H1.99669V54.1444H3.81428C4.52112 54.1444 5.12698 54.0434 5.53089 54.0434C5.9348 53.9424 6.23773 53.8415 6.54066 53.6395C6.8436 53.5385 7.04555 53.3366 7.2475 53.0336C7.95435 52.3268 8.25728 51.418 8.25728 50.3073C8.25728 49.1965 7.85337 48.3887 7.14653 47.6819C6.8436 47.3789 6.54066 47.177 6.23773 47.076C5.9348 46.975 5.53089 46.7731 5.22796 46.7731C5.02601 46.6721 4.52112 46.6721 3.81428 46.6721Z" fill="white"/>
<path d="M16.7393 52.2262H12.0943C12.0943 52.8321 12.3973 53.3369 12.7002 53.7409C13.1041 54.1448 13.609 54.3467 14.2149 54.3467C15.0227 54.3467 15.8305 54.0438 16.6383 53.5389V54.8516C16.2344 55.1545 15.8305 55.3565 15.4266 55.4575C15.0227 55.5584 14.6188 55.6594 14.0129 55.6594C13.3061 55.6594 12.7002 55.5584 12.1953 55.1545C11.6904 54.8516 11.3875 54.4477 11.0846 53.9428C10.7816 53.4379 10.6807 52.8321 10.6807 52.1252C10.6807 51.1154 10.9836 50.3076 11.4885 49.7018C12.0943 49.0959 12.8012 48.793 13.71 48.793C14.6188 48.793 15.3256 49.0959 15.8305 49.7018C16.3354 50.3076 16.6383 51.1154 16.6383 52.2262H16.7393ZM12.0943 51.4184H15.4266C15.4266 50.9135 15.2246 50.5096 14.9217 50.2067C14.7198 49.9037 14.3158 49.8027 13.9119 49.8027C13.508 49.8027 13.1041 49.9037 12.8012 50.2067C12.3973 50.5096 12.1953 50.9135 12.0943 51.4184Z" fill="white"/>
<path d="M17.9512 45.3594H19.2639V55.4571H17.9512V45.3594Z" fill="white"/>
<path d="M21.3846 45.9658C21.5865 45.9658 21.7885 46.0668 21.8895 46.1678C21.9904 46.2688 22.0914 46.4707 22.0914 46.6727C22.0914 46.8746 21.9904 47.0766 21.8895 47.1775C21.7885 47.2785 21.5865 47.3795 21.3846 47.3795C21.1826 47.3795 20.9807 47.2785 20.8797 47.1775C20.7787 47.0766 20.6777 46.8746 20.6777 46.6727C20.6777 46.4707 20.7787 46.2688 20.8797 46.1678C21.0816 46.0668 21.2836 45.9658 21.3846 45.9658ZM20.7787 48.7932H22.0914V55.4577H20.7787V48.7932Z" fill="white"/>
<path d="M27.7457 48.793H29.1594L26.2311 55.5584H25.7262L22.7979 48.793H24.2115L26.0291 52.8321L27.7457 48.793Z" fill="white"/>
<path d="M35.2184 52.2256H30.5734C30.5734 52.8315 30.8764 53.3364 31.1793 53.7403C31.5832 54.1442 32.0881 54.3461 32.694 54.3461C33.5018 54.3461 34.3096 54.0432 35.1174 53.5383V54.851C34.7135 55.1539 34.3096 55.3559 33.9057 55.4569C33.5018 55.5579 33.0979 55.6588 32.492 55.6588C31.7852 55.6588 31.1793 55.5579 30.6744 55.1539C30.1695 54.75 29.8666 54.3461 29.6647 53.8412C29.3617 53.3364 29.2607 52.7305 29.2607 52.0237C29.2607 51.0139 29.5637 50.2061 30.0686 49.6002C30.6744 48.9943 31.3813 48.6914 32.2901 48.6914C33.1989 48.6914 33.9057 48.9943 34.4106 49.6002C34.9155 50.2061 35.2184 51.0139 35.2184 52.1246V52.2256ZM30.5734 51.4178H33.9057C33.9057 50.9129 33.7037 50.509 33.4008 50.2061C33.0979 49.9031 32.7949 49.8022 32.2901 49.8022C31.7852 49.8022 31.4822 49.9031 31.0783 50.2061C30.8764 50.509 30.6744 50.9129 30.5734 51.4178Z" fill="white"/>
<path d="M37.7429 48.7924V50.307L37.8439 50.2061C38.4497 49.1963 39.0556 48.6914 39.7624 48.6914C40.2673 48.6914 40.7722 48.9943 41.2771 49.3982L40.5702 50.509C40.0654 50.1051 39.6614 49.9031 39.3585 49.9031C38.9546 49.9031 38.5507 50.1051 38.2478 50.509C37.9448 50.9129 37.7429 51.4178 37.7429 51.9227V55.3559H36.4302V48.7924H37.7429Z" fill="white"/>
<path d="M46.3252 48.793H47.8399L43.094 58.7897H41.6803L43.9018 54.0438L41.2764 48.793H42.791L44.6086 52.5291L46.3252 48.793Z" fill="white"/>
<path d="M60.6644 46.0664V46.8742C59.4527 46.2684 58.241 45.8645 57.0292 45.8645C55.8175 45.8645 54.7068 46.2684 53.8989 47.1772C53.0911 47.985 52.6872 49.0957 52.6872 50.4084C52.6872 51.7211 53.0911 52.7309 53.8989 53.5387C54.7068 54.3465 55.8175 54.7505 57.1302 54.7505C58.241 54.7505 59.4527 54.4475 60.7654 53.7407V54.5485C59.5537 55.1544 58.4429 55.4573 57.2312 55.4573C55.7165 55.4573 54.4038 54.9524 53.3941 53.9426C52.3843 52.9329 51.8794 51.7211 51.8794 50.3075C51.8794 48.8938 52.3843 47.5811 53.495 46.5713C54.5048 45.5615 55.8175 45.0566 57.2312 45.0566C58.241 45.2586 59.4527 45.4605 60.6644 46.0664Z" fill="white"/>
<path d="M62.4813 45.3594V55.4571H61.7744V45.3594H62.4813Z" fill="white"/>
<path d="M68.8437 55.4575V54.3467C68.5408 54.7506 68.2378 55.1545 67.9349 55.2555C67.632 55.4575 67.228 55.5584 66.7232 55.5584C66.0163 55.5584 65.4105 55.3565 64.9056 54.8516C64.4007 54.3467 64.1987 53.7409 64.1987 52.933V48.793H64.9056V52.8321C64.9056 53.4379 65.1075 53.9428 65.4105 54.2457C65.7134 54.5487 66.2183 54.7506 66.7232 54.7506C67.228 54.7506 67.531 54.6496 67.9349 54.4477C68.2378 54.2457 68.5407 53.8418 68.9447 53.3369V48.793H69.6515V55.4575H68.8437Z" fill="white"/>
<path d="M71.0649 55.0532V45.3594H71.7718V49.7014C72.4786 48.9946 73.2864 48.5906 74.1952 48.5906C75.0031 48.5906 75.8109 48.8936 76.3158 49.4994C76.8206 50.1053 77.1236 50.9131 77.1236 51.8219C77.1236 52.9327 76.8206 53.8415 76.1138 54.4473C75.407 55.0532 74.4982 55.4571 73.3874 55.4571C72.6806 55.5581 71.8728 55.3561 71.0649 55.0532ZM71.7718 50.5092V54.5483C72.2767 54.7503 72.8825 54.8512 73.3874 54.8512C74.1952 54.8512 75.003 54.5483 75.5079 54.0434C76.1138 53.5385 76.3158 52.8317 76.3158 51.9229C76.3158 51.1151 76.1138 50.5092 75.7099 50.0043C75.306 49.4994 74.7001 49.2975 74.0943 49.2975C73.2864 49.1965 72.5796 49.7014 71.7718 50.5092Z" fill="white"/>
</svg>
