<svg width="120" height="42" viewBox="0 0 120 42" fill="none" xmlns="http://www.w3.org/2000/svg">
<path d="M0.945977 0.695312H0V41.1755H0.945977V0.695312Z" fill="white"/>
<path d="M20.2755 41.1755L5.83362 15.7473L14.4105 0.695312H13.3068L4.72998 15.7473L19.2034 41.1755H20.2755Z" fill="white"/>
<path d="M29.7668 41.1755L15.3248 15.7473L23.9017 0.695312H22.7981L14.2212 15.7473L28.6946 41.1755H29.7668Z" fill="white"/>
<path d="M39.258 41.1755L24.816 15.7473L33.3929 0.695312H32.2893L23.7124 15.7473L38.1859 41.1755H39.258Z" fill="white"/>
<path d="M48.7808 14.1455H49.1907V17.1559H50.4205L52.3124 14.1455H52.8169L50.7673 17.316V17.3481L52.9431 20.8708H52.4385L50.4205 17.5402H49.1907V20.8708H48.7808V14.1455Z" fill="white"/>
<path d="M56.9481 14.0498C57.768 14.0498 58.6824 14.306 59.3131 14.8825L59.0608 15.2027C58.5248 14.7223 57.7049 14.4341 56.9481 14.4341C55.2454 14.4341 54.0787 15.7472 54.0787 17.4765C54.0787 19.2379 55.2454 20.615 56.9797 20.615C57.7995 20.615 58.6194 20.2948 59.2185 19.6863L59.4707 19.9745C58.9347 20.5189 58.1148 20.9993 56.9797 20.9993C54.9931 20.9993 53.6372 19.4301 53.6372 17.4765C53.6372 15.523 55.0246 14.0498 56.9481 14.0498Z" fill="white"/>
<path d="M60.8267 14.1455H61.2366V17.1559H62.4664L64.3583 14.1455H64.8628L62.8132 17.3481L64.989 20.9029H64.4844L62.4664 17.5402H61.2366V20.9029H60.8267V14.1455Z" fill="white"/>
<path d="M68.2363 16.0674H70.9166V16.4517H68.6463V20.9032H68.2363V16.0674Z" fill="white"/>
<path d="M73.9441 20.6152C74.8901 20.6152 75.6469 19.8466 75.6469 18.4695C75.6469 17.1564 74.9532 16.3558 74.0072 16.3558C73.1243 16.3558 72.3045 16.9963 72.3045 18.5015C72.2729 19.5583 72.872 20.6152 73.9441 20.6152ZM71.8945 16.0676H72.3045V16.644C72.3045 16.8682 72.2729 17.0283 72.2729 17.0283H72.3045C72.5882 16.3558 73.2504 15.9395 74.0072 15.9395C75.2685 15.9395 76.0568 16.9643 76.0568 18.4695C76.0568 20.0067 75.1739 20.9995 73.9441 20.9995C73.2189 20.9995 72.5882 20.5831 72.2729 19.9106H72.2414C72.2414 19.9106 72.2729 20.0707 72.2729 20.3269V22.7929H71.8945V16.0676Z" fill="white"/>
<path d="M77.2865 22.5365C77.7279 22.5365 78.0117 22.1202 78.2009 21.6718L78.5478 20.8712L76.5928 16.0674H77.0342L78.6109 19.9104C78.7055 20.1346 78.7685 20.3588 78.7685 20.3588H78.8001C78.8001 20.3588 78.8631 20.1346 78.9577 19.9104L80.5343 16.0674H80.9758L78.5478 22.0241C78.3271 22.5365 77.9487 22.9208 77.3496 22.9208C76.9081 22.9208 76.5928 22.6646 76.5928 22.6646L76.782 22.3123C76.6874 22.3123 76.9712 22.5365 77.2865 22.5365Z" fill="white"/>
<path d="M81.9531 16.0674H85.737V20.9032H85.3587V16.4517H82.3315V20.9032H81.9531V16.0674Z" fill="white"/>
<path d="M87.3135 16.0674H91.1289V20.9032H90.719V16.4517H87.7234V20.9032H87.3135V16.0674Z" fill="white"/>
<path d="M48.7808 24.2656H49.1907V27.276H50.4205L52.3124 24.2656H52.8169L50.7673 27.4361V27.4682L52.9431 30.991H52.4385L50.4205 27.6603H49.1907V30.991H48.7808V24.2656Z" fill="white"/>
<path d="M55.1187 30.7353C56.1593 30.7353 56.7269 29.6464 56.7269 28.6857V28.4295H56.4115C55.5917 28.4295 53.8889 28.4295 53.8889 29.6784C53.8889 30.1909 54.2989 30.7353 55.1187 30.7353ZM56.4115 28.0772H56.7269V27.917C56.7269 26.8602 56.1908 26.4759 55.434 26.4759C54.961 26.4759 54.4565 26.636 54.0781 26.9243L53.8574 26.604C54.2358 26.2837 54.8664 26.0596 55.4656 26.0596C56.5692 26.0596 57.1368 26.6681 57.1368 27.885V30.9915H56.7269V30.351C56.7269 30.0948 56.7584 29.9026 56.7584 29.9026C56.5061 30.5431 55.9385 31.0876 55.0872 31.0876C54.3304 31.0876 53.479 30.6392 53.479 29.6784C53.479 28.0772 55.5602 28.0772 56.4115 28.0772Z" fill="white"/>
<path d="M58.6504 26.1885H62.4343V30.9923H62.0559V26.5728H59.0288V30.9923H58.6504V26.1885Z" fill="white"/>
<path d="M64.0112 26.1885H64.4212V29.6152C64.4212 29.9355 64.3896 30.3838 64.3896 30.3838H64.4212C64.4212 30.3838 64.768 29.9034 64.9572 29.6152L67.5429 26.1885H67.9213V30.9923H67.4798V27.5656C67.4798 27.2453 67.5114 26.829 67.5114 26.829H67.4798C67.4798 26.829 67.133 27.2773 66.9438 27.5656L64.3581 30.9923H64.0112V26.1885Z" fill="white"/>
<path d="M70.6646 26.5728H68.8672V26.1885H72.8718V26.5728H71.0745V30.9923H70.6646V26.5728Z" fill="white"/>
<path d="M74.9844 30.7353C76.025 30.7353 76.5926 29.6464 76.5926 28.6857V28.4295H76.2772C75.4574 28.4295 73.7546 28.4295 73.7546 29.6784C73.7546 30.1909 74.1646 30.7353 74.9844 30.7353ZM76.2772 28.0772H76.5926V27.917C76.5926 26.8602 76.0565 26.4759 75.2997 26.4759C74.8268 26.4759 74.3222 26.636 73.9438 26.9243L73.7231 26.604C74.1015 26.2837 74.7322 26.0596 75.3313 26.0596C76.4349 26.0596 77.0025 26.6681 77.0025 27.885V30.9915H76.5926V30.351C76.5926 30.0948 76.6241 29.9026 76.6241 29.9026C76.3718 30.5431 75.8043 31.0876 74.9529 31.0876C74.1961 31.0876 73.3447 30.6392 73.3447 29.6784C73.3447 28.0772 75.4574 28.0772 76.2772 28.0772Z" fill="white"/>
<path d="M77.8855 30.6711C78.7684 30.5109 79.0838 29.4221 79.0838 27.6286V26.1875H81.7325V30.9913H81.3226V26.5718H79.4622V27.6286C79.4622 29.9665 78.9261 30.9273 77.854 31.0554V30.6711H77.8855Z" fill="white"/>
<path d="M83.782 30.3828H83.2144V30.9913H83.782V30.3828Z" fill="white"/>
<path d="M89.4896 24.1387C90.3095 24.1387 91.2239 24.3949 91.8546 24.9713L91.6023 25.2916C91.0663 24.8112 90.2464 24.523 89.4896 24.523C87.7869 24.523 86.6202 25.836 86.6202 27.5654C86.6202 29.3268 87.7869 30.7039 89.5212 30.7039C90.341 30.7039 91.1609 30.3836 91.76 29.7751L92.0122 30.0634C91.4762 30.6078 90.6563 31.0882 89.5212 31.0882C87.5346 31.0882 86.1787 29.5189 86.1787 27.5654C86.1787 25.6118 87.5661 24.1387 89.4896 24.1387Z" fill="white"/>
<path d="M96.5846 28.1412C96.5215 26.9563 95.8593 26.4439 95.071 26.4439C94.1881 26.4439 93.3998 27.0203 93.2106 28.1412H96.5846ZM95.071 26.0596C96.3638 26.0596 96.9945 27.0844 96.9945 28.2693C96.9945 28.3334 96.9945 28.4295 96.963 28.5255H93.1475C93.1475 29.9346 94.0935 30.7353 95.1656 30.7353C95.7017 30.7353 96.2692 30.5111 96.6476 30.1268L96.8684 30.4791C96.4584 30.8954 95.7962 31.1516 95.1656 31.1516C93.8412 31.1516 92.7061 30.1588 92.7061 28.6216C92.7691 26.9883 93.8412 26.0596 95.071 26.0596Z" fill="white"/>
<path d="M100.242 30.7353C101.188 30.7353 101.945 29.9667 101.945 28.5896C101.945 27.2765 101.251 26.4759 100.305 26.4759C99.4224 26.4759 98.6026 27.1164 98.6026 28.6216C98.6026 29.6784 99.1702 30.7353 100.242 30.7353ZM98.1927 26.1877H98.6026V26.7641C98.6026 26.9883 98.5711 27.1484 98.5711 27.1484H98.6026C98.8864 26.4759 99.5486 26.0596 100.305 26.0596C101.567 26.0596 102.355 27.0844 102.355 28.5896C102.355 30.1268 101.472 31.1196 100.242 31.1196C99.517 31.1196 98.8864 30.7033 98.5711 30.0307H98.5395C98.5395 30.0307 98.5711 30.1909 98.5711 30.4471V32.913H98.1611V26.1877H98.1927Z" fill="white"/>
<path d="M105.161 30.64C106.076 30.64 106.486 30.2877 106.486 29.6793C106.486 29.0387 106.013 28.7185 105.161 28.7185H103.995V30.64H105.161ZM105.098 28.3342C105.824 28.3342 106.202 28.0139 106.202 27.4054C106.202 26.829 105.824 26.5408 105.067 26.5408H103.995V28.3022H105.098V28.3342ZM103.585 26.1885H105.067C106.044 26.1885 106.612 26.6048 106.612 27.4054C106.612 27.9179 106.328 28.3022 105.855 28.4623V28.4943C106.486 28.6224 106.864 29.0708 106.864 29.6793C106.864 30.4479 106.265 31.0243 105.161 31.0243H103.553V26.1885H103.585Z" fill="white"/>
<path d="M108.125 26.1885H108.535V29.6152C108.535 29.9355 108.504 30.3838 108.504 30.3838H108.535C108.535 30.3838 108.882 29.9034 109.071 29.6152L111.657 26.1885H112.036V30.9923H111.626V27.5656C111.626 27.2453 111.657 26.829 111.657 26.829H111.626C111.626 26.829 111.279 27.2773 111.09 27.5656L108.504 30.9923H108.125V26.1885Z" fill="white"/>
<path d="M115.693 26.0596C116.293 26.0596 116.986 26.2838 117.396 26.7321L117.144 27.0524C116.797 26.7001 116.229 26.4439 115.693 26.4439C114.59 26.4439 113.675 27.2765 113.675 28.5896C113.675 29.8706 114.59 30.7033 115.693 30.7033C116.261 30.7033 116.892 30.4471 117.27 29.9987L117.491 30.351C117.081 30.7993 116.419 31.0876 115.693 31.0876C114.369 31.0876 113.234 30.0948 113.234 28.5576C113.234 27.0844 114.369 26.0596 115.693 26.0596Z" fill="white"/>
<path d="M119.099 30.3828H118.531V30.9913H119.099V30.3828Z" fill="white"/>
<path d="M48.7808 34.3857H49.1907V37.3961H50.4205L52.3124 34.3857H52.8169L50.7673 37.5563V37.5883L52.9431 41.1111H52.4385L50.4205 37.7804H49.1907V41.1111H48.7808V34.3857Z" fill="white"/>
<path d="M55.8126 40.8554C56.9477 40.8554 57.8622 39.9267 57.8622 38.7097C57.8622 37.5248 56.9477 36.596 55.8126 36.596C54.6774 36.596 53.763 37.4927 53.763 38.7097C53.763 39.8946 54.6774 40.8554 55.8126 40.8554ZM55.8126 36.1797C57.1685 36.1797 58.2721 37.2686 58.2721 38.6777C58.2721 40.1188 57.1685 41.2397 55.8126 41.2397C54.4567 41.2397 53.353 40.1188 53.353 38.6777C53.353 37.2686 54.4567 36.1797 55.8126 36.1797Z" fill="white"/>
<path d="M59.4707 36.3076H59.8806V38.4533H62.9708V36.3076H63.3807V41.1114H62.9708V38.8376H59.8806V41.1114H59.4707V36.3076Z" fill="white"/>
<path d="M67.0699 36.1807C67.669 36.1807 68.3627 36.4048 68.7727 36.8532L68.5204 37.1735C68.1735 36.8212 67.6059 36.565 67.0699 36.565C65.9663 36.565 65.0518 37.3976 65.0518 38.7107C65.0518 39.9917 65.9663 40.8244 67.0699 40.8244C67.6375 40.8244 68.2681 40.5681 68.6465 40.1198L68.8672 40.4721C68.4573 40.9204 67.7951 41.2087 67.0699 41.2087C65.7455 41.2087 64.6104 40.2159 64.6104 38.6786C64.6104 37.2055 65.7455 36.1807 67.0699 36.1807Z" fill="white"/>
<path d="M71.1375 40.8552C72.1781 40.8552 72.7457 39.7663 72.7457 38.8056V38.5494H72.4304C71.6105 38.5494 69.9078 38.5494 69.9078 39.7984C69.9078 40.3108 70.3177 40.8552 71.1375 40.8552ZM72.4304 38.1651H72.7457V38.0049C72.7457 36.9481 72.2096 36.5638 71.4529 36.5638C70.9799 36.5638 70.4754 36.7239 70.097 37.0121L69.8762 36.6919C70.2546 36.3716 70.8853 36.1475 71.4844 36.1475C72.588 36.1475 73.1556 36.7559 73.1556 37.9729V41.0794H72.7457V40.4389C72.7457 40.1827 72.7772 39.9905 72.7772 39.9905H72.7457C72.4934 40.631 71.9258 41.1755 71.0745 41.1755C70.3177 41.1755 69.4663 40.7271 69.4663 39.7663C69.4978 38.1971 71.579 38.1651 72.4304 38.1651Z" fill="white"/>
<path d="M74.0384 40.7912C74.9213 40.6311 75.2366 39.5422 75.2366 37.7488V36.3076H77.8853V41.1114H77.4754V36.6599H75.615V37.7167C75.615 40.0546 75.0789 41.0154 74.0068 41.1435V40.7912H74.0384Z" fill="white"/>
<path d="M80.6604 36.6919H78.8315V36.3076H82.8362V36.6919H81.0388V41.1114H80.6604V36.6919Z" fill="white"/>
<path d="M83.814 36.3076H84.2239V39.7343C84.2239 40.0546 84.1924 40.503 84.1924 40.503H84.2239C84.2239 40.503 84.5707 40.0226 84.7599 39.7343L87.3456 36.3076H87.724V41.1114H87.3141V37.6847C87.3141 37.3645 87.3456 36.9481 87.3456 36.9481H87.3141C87.3141 36.9481 86.9672 37.3965 86.778 37.6847L84.1924 41.1114H83.814V36.3076Z" fill="white"/>
<path d="M89.2686 36.3076H89.6785V38.4533H92.7687V36.3076H93.1786V41.1114H92.7687V38.8376H89.6785V41.1114H89.2686V36.3076Z" fill="white"/>
<path d="M94.7241 36.3076H97.4044V36.6599H95.134V41.1114H94.7241V36.3076Z" fill="white"/>
<path d="M97.9719 40.5029H97.4043V41.1114H97.9719V40.5029Z" fill="white"/>
</svg>
