<svg width="333" height="36" viewBox="0 0 333 36" fill="none" xmlns="http://www.w3.org/2000/svg">
<path d="M140.323 0.796509L132.929 19.207L125.424 0.796509H118.03L124.752 17.6543C120.831 18.7634 118.03 22.3124 118.03 26.5268C118.03 31.6285 122.175 35.732 127.328 35.732C131.249 35.732 134.609 33.2921 135.954 29.9649L147.716 0.796509H140.323ZM127.328 29.2995C125.76 29.2995 124.528 28.0795 124.528 26.5268C124.528 24.9741 125.76 23.7541 127.328 23.7541C128.896 23.7541 130.129 24.9741 130.129 26.5268C130.129 27.9686 128.896 29.2995 127.328 29.2995Z" fill="white"/>
<path d="M174.265 0.796509L165.752 10.889L156.118 0.796509H150.629V27.4141H158.358V12.5526L164.632 20.7597H166.872L173.033 12.5526V27.4141H180.875V0.796509H174.265Z" fill="white"/>
<path d="M106.94 10.7781H95.738V0.796509H87.8965V27.4141H95.738V17.4325H106.94V27.4141H114.782V0.796509H106.94V10.7781Z" fill="white"/>
<path d="M0.519531 27.4141H8.24903V7.4509H19.5632V27.4141H27.4047V0.796509H0.519531V27.4141Z" fill="white"/>
<path d="M62.1309 0.796509V27.4141H83.415V20.7597H69.9724V17.4325H80.0543V10.7781H69.9724V7.4509H83.415V0.796509H62.1309Z" fill="white"/>
<path d="M34.1263 0.796509V16.4343C34.1263 18.6525 32.782 20.0942 30.7656 20.0942V27.4141C37.2629 27.4141 41.9678 22.9778 41.9678 16.4343V7.4509H49.8093V27.4141H57.6508V0.796509H34.1263Z" fill="white"/>
<path d="M192.3 19.3186H193.645L196.781 22.9785L199.918 19.3186H201.262V27.4148H199.918V21.204L197.005 24.5312H196.445L193.533 21.204V27.4148H192.188V19.3186H192.3Z" fill="white"/>
<path d="M212.576 19.3184V27.4146H211.232V26.1946C210.672 26.971 209.552 27.6364 208.095 27.6364C205.631 27.6364 204.062 25.6401 204.062 23.422C204.062 21.0929 205.743 19.2075 208.095 19.2075C209.552 19.2075 210.56 19.873 211.232 20.6493V19.4293H212.576V19.3184ZM211.344 22.0911C210.896 21.0929 209.776 20.3166 208.543 20.3166C206.751 20.3166 205.519 21.6475 205.519 23.422C205.519 25.0856 206.751 26.4164 208.543 26.4164C209.776 26.4164 210.896 25.6401 211.344 24.6419V22.0911Z" fill="white"/>
<path d="M216.161 30.7412V19.3179H217.505V20.5379C218.065 19.7615 219.186 19.0961 220.642 19.0961C223.106 19.0961 224.675 21.0924 224.675 23.3105C224.675 25.6396 222.994 27.525 220.642 27.525C219.186 27.525 218.178 26.8595 217.505 26.0832V30.7412H216.161ZM217.505 24.7523C217.953 25.7505 219.074 26.5268 220.306 26.5268C222.098 26.5268 223.331 25.1959 223.331 23.4214C223.331 21.7578 222.098 20.4269 220.306 20.4269C219.074 20.4269 217.953 21.2033 217.505 22.2014V24.7523Z" fill="white"/>
<path d="M228.82 22.6451L232.517 19.3179H234.309L230.164 22.9778L234.981 27.414H233.077L228.82 23.5323V27.414H227.476V19.3179H228.82V22.6451Z" fill="white"/>
<path d="M236.214 23.422C236.214 21.0929 237.894 19.2075 240.359 19.2075C243.047 19.2075 244.167 21.5366 244.167 23.422V23.7547H237.558C237.782 25.4183 239.014 26.4164 240.919 26.4164C241.927 26.4164 242.823 26.0837 243.495 25.6401V26.7491C242.935 27.1928 241.815 27.5255 240.583 27.5255C238.118 27.6364 236.214 25.8619 236.214 23.422ZM242.823 22.6456C242.823 21.6475 242.039 20.3166 240.247 20.3166C238.566 20.3166 237.67 21.4256 237.558 22.6456H242.823Z" fill="white"/>
<path d="M248.76 20.5378H245.848V19.4287H253.017V20.5378H250.104V27.414H248.76V20.5378Z" fill="white"/>
<path d="M255.481 19.3179H256.826V25.4177L261.867 19.3179H263.099V27.414H261.755V21.3142L256.714 27.414H255.481V19.3179Z" fill="white"/>
<path d="M266.571 19.3179H267.916V22.6451H272.732V19.3179H274.077V27.414H272.732V23.865H267.916V27.414H266.571V19.3179Z" fill="white"/>
<path d="M277.55 19.3179H283.711V20.4269H278.894V27.414H277.55V19.3179Z" fill="white"/>
<path d="M192.077 7.11932C192.077 3.57031 194.654 1.13037 198.126 1.13037C199.359 1.13037 200.479 1.35218 201.375 2.01762V3.3485C200.479 2.68306 199.471 2.35034 198.126 2.35034C195.438 2.35034 193.421 4.34666 193.421 7.11932C193.421 9.89198 195.438 11.8883 198.126 11.8883C199.471 11.8883 200.591 11.5556 201.599 10.7792V12.1101C200.703 12.7755 199.471 13.1083 198.014 13.1083C194.654 13.2192 192.077 10.6683 192.077 7.11932Z" fill="white"/>
<path d="M206.528 6.12005H203.615V5.01099H210.785V6.12005H207.76V12.9963H206.416V6.12005H206.528Z" fill="white"/>
<path d="M213.249 16.3234V4.90004H214.593V6.12001C215.153 5.34366 216.274 4.67822 217.73 4.67822C220.194 4.67822 221.763 6.67454 221.763 8.89267C221.763 11.2217 220.082 13.1071 217.73 13.1071C216.274 13.1071 215.265 12.4417 214.593 11.6653V16.3234H213.249ZM214.593 10.3345C215.041 11.3326 216.05 12.109 217.394 12.109C219.186 12.109 220.418 10.7781 220.418 9.00357C220.418 7.33998 219.186 6.0091 217.394 6.0091C216.162 6.0091 215.041 6.78545 214.593 7.7836V10.3345Z" fill="white"/>
<path d="M232.517 4.90009V12.9963H231.172V11.7763C230.612 12.5526 229.492 13.2181 228.036 13.2181C225.571 13.2181 224.003 11.2218 224.003 9.00363C224.003 6.67459 225.683 4.78918 228.036 4.78918C229.492 4.78918 230.5 5.45462 231.172 6.23097V4.90009H232.517ZM231.172 7.67275C230.724 6.67459 229.604 5.89825 228.372 5.89825C226.579 5.89825 225.347 7.22913 225.347 9.00363C225.347 10.6672 226.579 11.9981 228.372 11.9981C229.604 11.9981 230.724 11.2218 231.172 10.2236V7.67275Z" fill="white"/>
<path d="M237.894 6.12005H234.981V5.01099H242.151V6.12005H239.238V12.9963H237.894V6.12005Z" fill="white"/>
<path d="M243.831 9.00363C243.831 6.67459 245.511 4.78918 247.976 4.78918C250.664 4.78918 251.785 7.11822 251.785 9.00363V9.33635H245.175C245.399 10.9999 246.632 11.9981 248.536 11.9981C249.544 11.9981 250.44 11.6654 251.112 11.2218V12.4417C250.552 12.8854 249.432 13.2181 248.2 13.2181C245.735 13.2181 243.831 11.4436 243.831 9.00363ZM250.44 8.22728C250.44 7.22913 249.656 5.89825 247.864 5.89825C246.184 5.89825 245.287 7.00731 245.175 8.22728H250.44Z" fill="white"/>
<path d="M254.697 4.90002H260.858V6.00909H256.042V12.9962H254.697V4.90002Z" fill="white"/>
<path d="M263.435 4.90002H264.779V10.9999L269.82 4.90002H271.052V12.9962H269.708V6.89634L264.667 12.9962H263.435V4.90002Z" fill="white"/>
<path d="M279.901 9.77991C279.117 10.1126 278.221 10.2235 277.437 10.2235C275.308 10.2235 274.076 9.33628 274.076 6.89634V4.90002H275.42V6.78543C275.42 8.44903 275.981 9.11447 277.661 9.11447C278.333 9.11447 279.229 8.89266 279.789 8.55994V4.90002H281.134V12.9962H279.789V9.77991H279.901Z" fill="white"/>
<path d="M284.158 9.00363C284.158 6.67459 285.839 4.78918 288.303 4.78918C290.992 4.78918 292.112 7.11822 292.112 9.00363V9.33635H285.502C285.727 10.9999 286.959 11.9981 288.863 11.9981C289.871 11.9981 290.767 11.6654 291.44 11.2218V12.4417C290.88 12.8854 289.759 13.2181 288.527 13.2181C286.175 13.2181 284.158 11.4436 284.158 9.00363ZM290.767 8.22728C290.767 7.22913 289.983 5.89825 288.191 5.89825C286.511 5.89825 285.614 7.00731 285.502 8.22728H290.767Z" fill="white"/>
<path d="M294.465 9.00363C294.465 6.56369 296.369 4.78918 298.834 4.78918C299.842 4.78918 300.626 5.011 301.298 5.34372V6.56369C300.626 6.12006 299.842 6.00915 299.058 6.00915C297.265 6.00915 295.809 7.34003 295.809 9.11453C295.809 10.889 297.265 12.109 299.058 12.109C300.066 12.109 300.738 11.8872 301.522 11.4436V12.6635C300.738 13.1072 299.954 13.329 298.946 13.329C296.257 13.2181 294.465 11.3327 294.465 9.00363Z" fill="white"/>
<path d="M305.779 8.22722L309.476 4.90002H311.268L307.123 8.55994L311.94 12.9962H310.036L305.779 9.11447V12.9962H304.435V4.90002H305.779V8.22722Z" fill="white"/>
<path d="M314.293 4.90002H315.637V10.9999L320.678 4.90002H321.91V12.9962H320.566V6.89634L315.525 12.9962H314.293V4.90002Z" fill="white"/>
<path d="M325.383 4.90003H326.727V10.9999L331.768 4.90003H333V12.9962H331.656V6.89635L326.615 12.9962H325.383V4.90003ZM326.503 1.01831H327.623C327.623 1.90556 328.183 2.571 329.192 2.571C330.2 2.571 330.76 1.90556 330.76 1.01831H331.88C331.88 2.571 330.648 3.56916 329.08 3.56916C327.623 3.68006 326.503 2.68191 326.503 1.01831Z" fill="white"/>
</svg>
