<svg width="73" height="28" viewBox="0 0 73 28" fill="none" xmlns="http://www.w3.org/2000/svg">
<path d="M69.906 8.17372C69.4011 8.47665 68.4923 8.88056 67.3816 8.98154C67.2806 8.98154 67.1796 8.98154 66.9777 8.98154C65.2611 8.77958 64.4532 7.3659 64.3523 6.86101H72.2285C72.2285 6.86101 73.0363 4.23561 71.0168 1.91313C70.108 0.903358 68.7953 0.297495 67.4826 0.196518C66.0689 0.0955405 64.4532 0.701404 63.3425 1.6102C62.3327 2.51899 61.7269 3.73072 61.5249 5.1444C61.5249 5.34636 61.5249 5.54831 61.5249 5.75027C61.5249 7.46688 62.2317 8.98154 63.5444 9.99131C64.5542 10.7991 65.8669 11.304 67.3816 11.304C68.8962 11.304 70.2089 10.7991 71.2187 9.99131L69.906 8.17372ZM67.0786 2.51899C68.3914 2.51899 69.5021 3.42779 69.805 4.63952H64.3523C64.6552 3.42779 65.7659 2.51899 67.0786 2.51899Z" fill="white"/>
<path d="M39.7142 0.196289C36.5839 0.196289 33.9585 2.72072 33.9585 5.75004C33.9585 8.77935 36.5839 11.3038 39.7142 11.3038C42.8445 11.3038 45.4699 8.77935 45.4699 5.75004C45.4699 2.72072 42.9455 0.196289 39.7142 0.196289ZM39.7142 8.98131C37.9976 8.98131 36.5839 7.56763 36.5839 5.75004C36.5839 3.93245 37.9976 2.51877 39.7142 2.51877C41.4308 2.51877 42.8445 3.93245 42.8445 5.75004C42.9455 7.56763 41.5318 8.98131 39.7142 8.98131Z" fill="white"/>
<path d="M34.3621 10.8997L29.9191 5.44691L33.9582 0.499023H30.7269L27.0917 4.84104V4.53811V0.499023H24.4663V10.8997H27.0917V6.75961V6.15375L31.1308 10.8997H34.3621Z" fill="white"/>
<path d="M32.0398 25.1374L29.6163 21.8051L27.2939 25.1374H24.1636L28.0007 19.7856L24.3655 14.6357H27.4958L29.6163 17.6651L31.8378 14.6357H34.9681L31.232 19.7856L35.1701 25.1374H32.0398Z" fill="white"/>
<path d="M63.0392 25.4409C60.9187 25.4409 59.505 24.5321 58.6972 22.9165L58.5962 22.7145L60.6157 21.6038C61.0196 22.6135 61.8275 23.0174 63.0392 23.0174C64.049 23.0174 64.7558 22.6135 64.7558 21.9067C64.7558 21.3008 64.2509 20.8969 63.4431 20.8969H61.8275V18.5744H63.0392C63.847 18.5744 64.3519 18.1705 64.3519 17.5647C64.3519 16.9588 63.847 16.5549 62.9382 16.5549C61.9284 16.5549 61.3226 16.9588 60.9187 17.7666L60.8177 17.9686L58.6972 16.7569L58.7981 16.6559C59.606 15.0402 60.9187 14.2324 62.8372 14.2324C64.049 14.2324 64.9578 14.5354 65.6646 15.1412C66.3714 15.7471 66.7753 16.4539 66.7753 17.3627C66.7753 18.3725 66.4724 19.0793 65.7656 19.5842C66.7753 20.0891 67.2802 20.8969 67.2802 22.0077C67.1793 24.1282 65.5636 25.4409 63.0392 25.4409Z" fill="white"/>
<path d="M43.9546 14.6363V15.4441C42.9449 14.7373 41.7332 14.2324 40.4204 14.2324C37.3911 14.2324 34.8667 16.7569 34.8667 19.7862C34.8667 22.8155 37.3911 25.3399 40.4204 25.3399C41.7332 25.3399 43.0459 24.936 43.9546 24.1282V24.936H46.4791V14.6363H43.9546ZM40.8244 23.1184C39.0068 23.1184 37.5931 21.7047 37.5931 19.8871C37.5931 18.0696 39.0068 16.6559 40.8244 16.6559C42.6419 16.6559 44.0556 18.0696 44.0556 19.8871C43.9546 21.6038 42.541 23.1184 40.8244 23.1184Z" fill="white"/>
<path d="M55.8705 14.6357L53.0431 21.6032L50.3167 14.6357H47.5903L51.6294 25.0364L50.5187 27.7628H53.346L58.6978 14.6357H55.8705Z" fill="white"/>
<path d="M56.4763 0.499221C55.9715 0.297266 54.8607 0.196289 53.548 0.196289C52.2353 0.196289 51.0236 0.297266 50.6197 0.499221C48.2972 1.10508 46.5806 3.22561 46.5806 5.75004C46.5806 8.5774 48.8021 10.8999 51.5285 11.1018C51.7304 11.1018 51.9324 11.1018 52.2353 11.2028V13.7272H54.9617V11.2028C55.1636 11.2028 55.4666 11.2028 55.6685 11.1018C58.3949 10.8999 60.6164 8.5774 60.6164 5.75004C60.5154 3.12463 58.7988 1.00411 56.4763 0.499221ZM49.206 5.64906C49.206 3.93245 50.5187 2.61974 52.1343 2.51877V8.77935C50.5187 8.67838 49.206 7.36567 49.206 5.64906ZM54.8607 8.77935V2.51877C56.4763 2.61974 57.789 4.03342 57.789 5.64906C57.789 7.36567 56.4763 8.67838 54.8607 8.77935Z" fill="white"/>
<path d="M16.2864 10.8987L16.8923 6.05176H1.3418L2.04864 10.8987H16.2864Z" fill="white"/>
<path d="M14.5702 23.4188L14.9741 20.1875H3.26074L3.76563 23.4188C3.86661 24.3276 4.67442 25.0344 5.58322 25.0344H12.6516C13.6614 25.0344 14.3682 24.4285 14.5702 23.4188Z" fill="white"/>
<path d="M2.25098 11.9092H16.0849C16.9937 12.717 16.9937 13.9287 16.0849 14.7365H2.25098C1.24121 13.9287 1.24121 12.717 2.25098 11.9092Z" fill="white"/>
<path d="M10.5305 19.6844C10.0256 19.6844 9.41978 19.4824 9.01587 19.0785L7.80414 17.9678L6.39046 19.1795C5.48167 19.8863 4.26994 19.8863 3.46212 19.0785L1.64453 17.4629L3.36114 15.6453L4.97678 17.059L6.39046 15.8472C7.29926 15.1404 8.51098 15.1404 9.3188 15.9482L10.5305 17.059L11.9442 15.8472C12.853 15.1404 14.0647 15.1404 14.8725 15.9482L16.6901 17.6648L14.9735 19.4824L13.3579 17.9678L11.9442 19.1795C11.5403 19.4824 11.0354 19.6844 10.5305 19.6844Z" fill="white"/>
<path d="M18.2052 6.05242H0.0292969L1.54396 2.82115C1.64493 2.51822 1.94786 2.21528 2.35177 2.21528L14.772 0.599649C15.2769 0.498672 15.7817 0.801603 15.9837 1.20551L18.2052 6.05242Z" fill="white"/>
</svg>
