<svg width="203" height="165" fill="none" xmlns="http://www.w3.org/2000/svg"><path d="M193.04.35c-18.93 5.5-37.85 10.99-56.78 16.49-9.62 2.79-5.53 17.85 4.15 15.04 4.42-1.28 8.84-2.57 13.27-3.85-17.29 16.5-33.01 34.57-47.02 53.96-4.43 6.13-8.67 12.39-12.72 18.77-1.83 2.89-3.47 5.93-5.4 8.75-.17.25-.33.46-.47.64-.25-.56-.46-1.01-.5-1.11-5.46-14.85-8.15-30.3-8.05-46.11.04-6.33-8.85-10.86-13.32-5.52-24.7 29.57-46.57 61.36-65.16 95.1-4.85 8.8 8.62 16.68 13.47 7.87 14.84-26.95 31.75-52.71 50.64-76.97 1.55 12.07 4.61 24 9.47 35.02 3.42 7.77 11.67 11.16 19.47 7.09 7.2-3.75 11-13.37 15.19-19.84 16.95-26.16 37.25-49.98 60.15-71.08-1.91 4.5-3.57 9.12-4.94 13.88-2.78 9.67 12.27 13.79 15.04 4.15 4.16-14.47 11.25-27.84 21.1-39.26 4.85-5.6.34-15.33-7.59-13.02z" fill="#B531E3"/></svg>