<svg width="115" height="181" viewBox="0 0 115 181" fill="none" xmlns="http://www.w3.org/2000/svg">
<path d="M94.6606 147.443C81.4178 146.093 68.1722 146.039 55.0502 147.21C61.1046 123.788 68.3062 100.678 76.7251 77.9954C80.9274 66.6786 85.4108 55.4767 90.1843 44.4006C90.726 43.143 91.286 41.6762 91.8936 40.1233C98.5463 34.5318 104.523 28.1785 109.487 20.773C113.159 15.2922 108.562 7.14048 101.709 8.58877C90.9306 10.858 84.6667 19.2339 80.1176 28.6633C79.8605 29.1929 79.6124 29.7334 79.3653 30.2638C64.9752 41.6831 47.3321 49.3245 30.7118 56.6338C21.5144 60.6775 28.1804 74.7822 37.3779 70.7384C47.7451 66.1746 58.3805 61.4134 68.4953 55.8338C67.2423 59.0267 66.0083 62.2313 64.786 65.4169C55.1369 90.5717 46.9754 116.278 40.2556 142.372C39.664 144.659 39.8468 147.044 40.8728 148.971C29.0443 150.847 17.3495 153.719 5.89977 157.575C1.91799 158.913 0.517285 164.483 2.18047 167.961C4.17552 172.12 8.54247 173.035 12.5658 171.68C38.4866 162.936 66.1298 160.205 93.2928 162.963C103.291 163.998 104.66 148.458 94.6606 147.443Z" fill="#B531E3"/>
</svg>
