<svg width="126" height="159" viewBox="0 0 126 159" fill="none" xmlns="http://www.w3.org/2000/svg">
<path d="M28.2183 45.9385C30.9783 39.8785 36.8483 35.8185 42.2383 32.1885C47.8783 28.3885 53.8783 25.0585 60.1483 22.3985C66.4883 19.7085 73.1683 17.6785 79.8983 16.2485C84.3183 15.3085 89.3183 14.7885 89.2783 20.7285C89.2283 26.5185 82.4783 31.9985 78.7283 35.6385C73.1283 41.0685 67.2683 46.2285 61.3883 51.3585C54.9383 56.9785 48.4783 62.5785 42.0183 68.1885C39.0083 70.7985 35.9983 73.4185 32.9983 76.0285C30.2483 78.4185 27.5883 81.3085 24.0083 82.3285C26.9483 86.1485 29.8783 89.9685 32.8183 93.7885C40.4583 82.1385 56.3983 76.4985 69.1883 72.8585C81.2583 69.4285 99.3083 67.8585 107.528 79.8685C115.548 91.5885 104.198 109.218 96.3683 118.058C86.5383 129.168 73.6483 136.868 59.3183 140.648C50.8383 142.888 42.1283 143.698 33.3783 143.168C28.4383 142.868 16.3083 141.818 15.6283 134.958C15.2083 130.768 12.3383 127.159 7.82832 127.159C3.93832 127.159 -0.391682 130.738 0.0283182 134.958C2.29832 157.668 29.5083 160.288 47.5183 158.488C68.2183 156.408 87.9283 148.118 103.028 133.638C116.448 120.778 128.928 100.488 124.788 81.1985C120.348 60.5385 96.5583 52.9785 77.9583 55.2385C66.0883 56.6785 54.6383 60.8085 43.8583 65.8785C34.0883 70.4685 25.3283 76.7985 19.3483 85.9185C15.5683 91.6785 21.8183 99.1785 28.1583 97.3785C35.7283 95.2185 41.2483 89.4885 47.0383 84.4485C53.2983 78.9985 59.5583 73.5585 65.8183 68.1185C77.4783 57.9785 91.2983 47.9285 100.028 35.0085C107.108 24.5185 106.548 8.3985 94.1083 2.0485C87.2783 -1.4415 79.5683 0.218496 72.4683 1.9585C65.5783 3.6485 58.9283 6.0285 52.4283 8.8585C45.1283 12.0385 38.1483 15.9385 31.6783 20.5885C25.1383 25.2985 18.1783 30.5385 14.7383 38.0585C12.9783 41.9185 13.6683 46.4185 17.5383 48.7285C20.8783 50.7285 26.4683 49.7685 28.2183 45.9385Z" fill="#B531E3"/>
</svg>
