<svg width="196" height="191" viewBox="0 0 196 191" fill="none" xmlns="http://www.w3.org/2000/svg">
<path d="M188.996 86.8231C184.508 87.635 181.157 84.6315 179.903 80.6069C179.748 80.0914 179.601 79.4762 179.454 78.8611C168.696 99.7028 153.214 118.324 133.066 130.615C104.868 147.723 71.3562 146.397 41.6184 134.058C32.4161 130.241 37.8165 115.556 47.0102 119.472C62.704 125.965 79.6294 129.855 96.6058 127.425C120.396 123.986 139.965 109.135 153.835 90.5729C159.531 82.8399 163.754 75.8814 167.457 67.9741C164.766 70.0474 161.884 72.0037 158.812 73.843C155.108 76.0284 150.093 73.6825 148.397 70.1211C146.446 66.0355 148.514 61.9 152.119 59.7058C162.275 53.7684 170.7 44.6681 176.125 34.3014C179.975 27.0092 192.111 28.2717 191.183 37.7269C189.79 51.3573 191.13 64.725 195.195 77.9295C196.557 81.8632 192.769 86.1493 188.996 86.8231ZM170.826 175.176C120.116 169.635 69.3317 166.095 18.3328 166.151C27.1834 114.325 31.9757 61.8428 32.5666 9.19394C32.6325 -0.738115 17.1006 -2.19736 17.026 7.83431C16.3728 63.4892 11.1111 119.042 1.09372 173.878C0.329186 178.027 4.29906 181.988 8.18422 182.328C9.57889 182.45 10.8005 182.255 11.9486 181.754C64.5763 181.439 117.055 185.127 169.458 190.816C179.403 191.887 180.762 176.346 170.826 175.176Z" fill="#8200AF"/>
</svg>
