<svg width="219" height="228" viewBox="0 0 219 228" fill="none" xmlns="http://www.w3.org/2000/svg">
<path d="M204.3 200.4C197.7 202.3 190.9 204.9 186 209.6C183.4 210.3 180.8 210.8 178.1 211.3C177.3 211.4 176.5 211.5 175.6 211.6C175.7 211.4 175.8 211.2 175.9 211C185.9 207.5 195.3 201.5 202.3 194.7C206.8 190.4 203.7 180.5 196.8 181.4C199.7 178.6 201.8 175.1 202.6 171C204.4 161.6 197 155.2 188.1 155C176.3 154.8 164.1 159.6 154.5 166.9C157.6 161.1 150.9 152.4 143.6 156.5C131 163.5 114.2 168.9 101.1 159.8C88.9999 151.3 88.0999 132.5 91.0999 119.3C97.3999 90.8 127.9 67.2 157.7 75.6C172.7 79.9 180.5 95.2 175.4 109.9C172.1 119.4 187.2 123.5 190.4 114C196.6 96.1 189.2 75.2 172.9 65.3C155.5 54.8 132.9 57.4 115.3 65.7C97.0999 74.4 83.1999 91 77.3999 110.5C71.7999 129.2 72.9999 153.3 87.0999 168.1C104.1 185.9 130.6 181.2 150.1 170.8C148.7 172.1 147.3 173.6 146.1 175C144.6 176.8 143 178.7 141.6 180.8C138.2 180.9 134.7 180.8 131.4 180.7C121.4 180.3 121.4 195.9 131.4 196.3C132.9 196.4 134.4 196.4 135.9 196.4C135.9 204.8 141.5 211.9 149.8 213.5C152.7 214.1 155.6 214.3 158.5 214.3C158.5 215.7 158.7 217.1 159.2 218.5C162.8 229.5 175.8 227.6 184.6 226C185 225.9 185.3 225.9 185.7 225.8C186.7 226.2 187.7 226.5 188.9 226.6C190.7 226.7 192.5 226.8 194.3 226.9C198.9 227.2 201.4 224 201.8 220.5C205.5 218.7 209 216.4 212.1 213.5C217.7 208.1 211.6 198.2 204.3 200.4ZM168.7 176.3C173.8 173.4 179.5 171.4 185.3 170.8C185.3 170.8 185.3 170.8 185.4 170.8C183.5 172.6 180.9 173.7 178.5 174.6C174.4 176.1 170.1 177.2 165.8 178.2C166.8 177.4 167.8 176.8 168.7 176.3ZM154.8 198.4C152.8 198.3 151.7 198.4 151.4 196.3C151.4 196.2 151.4 196 151.4 195.9C157.7 195.4 164 194.6 170.2 193.2C168.8 194.4 167.4 195.9 166.1 197.4C162.4 198.3 158.6 198.6 154.8 198.4ZM198.9 60.7C197.4 64.7 193.7 67.4 189.3 66.1C185.5 65.1 182.4 60.4 183.9 56.5C190.2 39.9 196.6 23.3 202.9 6.60002C204.4 2.60002 208.1 -0.0999826 212.5 1.20002C216.3 2.20002 219.4 6.90002 217.9 10.8C211.5 27.5 205.2 44.1 198.9 60.7ZM49.3999 20.1C44.6999 11.2 58.0999 3.40002 62.8999 12.2C68.5999 22.8 75.2999 32.7 83.1999 41.8C89.7999 49.3 78.7999 60.4 72.1999 52.8C63.2999 42.7 55.6999 31.9 49.3999 20.1ZM8.39994 143.8C0.999939 146 -2.20006 134.4 5.19994 132.2C18.9999 128 33.2999 126.2 47.5999 126.9C55.2999 127.3 55.2999 139.3 47.5999 138.9C34.1999 138.2 21.1999 139.9 8.39994 143.8Z" fill="#8200AF"/>
</svg>
