<svg width="198" height="206" viewBox="0 0 198 206" fill="none" xmlns="http://www.w3.org/2000/svg">
<path d="M84.8866 16.8184C84.7036 14.7264 85.4345 12.7552 86.6985 11.1389C87.9624 9.52259 89.9934 8.64222 91.9771 8.36829C93.0729 8.27242 94.0865 8.38451 95.0267 8.80416C96.049 9.01587 96.8983 9.54386 97.6566 10.1802C99.1733 11.4528 100.253 13.4664 100.427 15.4588C100.445 15.658 100.471 15.9569 100.488 16.1561C100.671 18.2481 99.9403 20.2194 98.6763 21.8357C97.4124 23.452 95.3814 24.3323 93.3977 24.6063C92.3019 24.7021 91.2883 24.5901 90.3481 24.1704C89.3258 23.9587 88.4765 23.4307 87.7182 22.7944C86.2015 21.5217 85.1219 19.5082 84.9476 17.5158C84.9302 17.3165 84.904 17.0177 84.8866 16.8184ZM69.803 14.2232C54.9858 15.8207 41.1536 20.6446 28.5965 28.5691C22.0365 32.7568 26 41.3441 32.017 42.4237C17.9967 60.0126 10.0169 82.3933 10.4014 105.146C10.5756 115.169 26.1163 113.81 25.9421 103.787C25.5613 79.9291 36.5383 57.3866 54.1637 41.9919C53.749 44.1362 53.4339 46.2718 53.2185 48.3987C52.2794 58.3182 67.5884 61.1949 68.5187 51.1757C69.4017 41.7629 72.373 33.2717 77.3976 25.3034C80.7648 20.1905 75.1737 13.6529 69.803 14.2232ZM172.759 65.4449C163.091 40.9944 141.342 23.0216 114.338 19.562C104.392 18.3241 101.515 33.6331 111.561 34.8623C133.895 37.7266 152.784 52.8378 159.557 74.0282C157.399 72.3097 155.241 70.5913 153.083 68.8728C145.209 62.6353 135.21 74.5522 143.084 80.7897C148.266 84.9538 153.44 89.0183 158.623 93.1825C162.939 96.6194 167.494 101.642 173.471 101.119C179.249 100.613 181.901 95.3619 182.968 90.3498C184.321 84.0078 185.574 77.6745 186.818 71.2416C188.485 62.7641 176.962 59.5562 172.759 65.4449ZM166.486 145.195C156.962 163.696 138.409 177.666 117.594 180.691C97.9734 183.613 78.4481 177.29 63.6884 164.628C66.7853 164.458 69.7913 164.396 72.8883 164.225C82.8851 163.752 81.5254 148.211 71.5286 148.684C61.233 149.184 50.9286 149.583 40.6329 150.082C39.836 150.152 39.0477 150.322 38.2769 150.69C33.0531 150.645 27.5503 155.443 30.4467 161.012C30.6895 161.493 30.9323 161.973 31.1664 162.354C31.5263 163.025 31.9858 163.688 32.4366 164.251C37.6254 171.928 42.7146 179.613 47.9035 187.29C52.0563 193.452 62.4541 189.531 62.3944 183.112C79.3408 194.377 100.663 199.438 120.738 195.976C146.555 191.609 168.901 175.098 180.822 151.871C185.253 142.851 171.124 136.257 166.486 145.195ZM26.8632 133.821C26.6677 132.734 26.4809 131.746 26.2854 130.659C26.1896 129.563 25.9032 128.584 25.3266 127.731C24.9406 126.761 24.2732 126.017 23.5148 125.38C21.9982 124.108 19.7194 123.303 17.8353 123.569C15.8516 123.842 13.8206 124.723 12.5567 126.339C11.4746 127.739 10.5444 129.727 10.7012 131.521C10.4808 132.443 10.36 133.357 10.4385 134.254C10.5991 134.943 10.7597 135.631 10.9203 136.32C11.4321 137.58 12.1344 138.723 13.2091 139.533C13.5341 139.805 13.8678 140.178 14.0932 140.459C14.6261 140.814 15.2587 141.16 15.7917 141.515C16.4155 141.762 17.0307 141.908 17.7542 142.146C18.4602 142.185 19.1663 142.224 19.8723 142.262C20.9681 142.166 21.9469 141.88 22.7999 141.303C23.4798 141.043 23.9517 140.701 24.4063 140.159C24.9778 139.808 25.4324 139.266 25.6789 138.642C26.4709 137.368 27.2106 135.497 26.8632 133.821ZM187.521 114.846C187.521 114.846 187.512 114.747 187.503 114.647C187.412 114.755 187.521 114.846 187.521 114.846ZM171.879 113.906C171.879 113.906 171.871 113.806 171.97 113.798C171.879 113.906 171.879 113.906 171.879 113.906ZM187.521 114.846C187.53 114.946 187.278 114.366 186.918 113.694C186.415 112.534 185.721 111.49 184.746 110.672C184.214 110.317 183.581 109.971 183.048 109.616C181.792 109.023 180.462 108.738 179.067 108.86C178.469 108.913 177.482 109.099 176.901 109.351C176.512 109.485 176.321 109.602 175.75 109.954C175.369 110.188 174.979 110.322 174.697 110.548C174.325 110.881 173.481 111.557 173.117 111.991C172.754 112.424 171.806 114.214 171.879 113.906C171.624 114.43 171.395 115.253 171.248 115.868C171.257 115.968 171.265 116.068 171.166 116.076C171.127 116.782 171.089 117.489 171.05 118.195L171.059 118.294C171.219 118.983 171.38 119.671 171.541 120.36C171.675 120.75 171.801 121.04 172.035 121.421C172.161 121.711 172.395 122.092 172.629 122.473C172.854 122.755 173.747 123.781 174.072 124.053C174.397 124.326 175.463 125.036 175.879 125.2L175.987 125.291C176.611 125.538 177.226 125.685 177.95 125.923C178.049 125.914 178.049 125.914 178.158 126.005C178.665 126.061 179.778 126.164 180.376 126.112C181.073 126.051 181.861 125.882 182.541 125.621C182.931 125.487 183.121 125.37 183.602 125.127C184.754 124.524 184.373 124.758 185.299 123.874C186.226 122.99 186.689 122.548 187.282 121.292C187.537 120.767 187.857 119.836 187.904 119.23C187.96 118.723 188.055 117.51 188.011 117.012C187.851 116.323 187.673 115.435 187.521 114.846Z" fill="#B531E3"/>
</svg>
