<svg width="140" height="179" viewBox="0 0 140 179" fill="none" xmlns="http://www.w3.org/2000/svg">
<path d="M138.159 146.829C139.819 156.669 124.779 160.849 123.119 150.979C115.559 106.169 127.979 61.0187 122.729 16.2487C104.919 17.9287 87.1289 19.8887 69.3889 22.1787C59.7789 23.4187 50.1889 24.7687 40.6089 26.2087C32.8589 27.3687 23.4889 27.6287 15.9089 30.5687C20.8189 73.9787 20.0589 117.719 21.8489 161.319C33.5289 158.619 45.2189 156.169 57.1789 154.879C72.9089 153.179 88.7389 153.329 104.449 155.119C108.649 155.599 112.249 158.309 112.249 162.919C112.249 166.789 108.639 171.199 104.449 170.719C89.3789 168.999 74.1989 168.789 59.0989 170.279C44.5489 171.709 30.3989 175.299 16.1989 178.649C9.24894 180.289 5.14894 173.159 6.87894 168.069C6.61894 167.339 6.45894 166.539 6.41894 165.649C4.35894 119.799 5.43894 73.7487 0.0389373 28.0787C-0.151063 26.4987 0.368937 25.0087 1.27894 23.7587C1.49894 21.6787 2.66894 19.7087 5.13894 18.4087C14.1389 13.6687 24.6289 12.9587 34.5389 11.4587C44.8489 9.89869 55.1789 8.44869 65.5189 7.08869C86.7589 4.28869 108.049 1.93869 129.389 0.0186944C132.489 -0.261306 136.429 2.64869 136.909 5.74869C144.269 52.6787 130.259 100.049 138.159 146.829ZM37.6889 56.3887C55.5089 54.4087 73.3789 53.0587 91.2889 52.3487C101.289 51.9487 101.349 36.3487 91.2889 36.7487C73.3789 37.4687 55.5089 38.8087 37.6889 40.7887C33.4989 41.2587 29.8889 44.0387 29.8889 48.5887C29.8889 52.4487 33.4789 56.8587 37.6889 56.3887ZM39.2189 82.1487C56.7389 80.2587 74.3089 79.0887 91.9189 78.6487C101.939 78.3987 101.979 62.7987 91.9189 63.0487C74.3089 63.4887 56.7389 64.6587 39.2189 66.5487C35.0289 66.9987 31.4189 69.8087 31.4189 74.3487C31.4189 78.2187 34.9989 82.6087 39.2189 82.1487ZM98.3589 93.2887C78.6889 93.2587 59.0589 94.2587 39.4989 96.2987C35.3089 96.7387 31.6989 99.5687 31.6989 104.099C31.6989 107.979 35.2789 112.339 39.4989 111.899C59.0589 109.869 78.6989 108.869 98.3589 108.889C108.399 108.909 108.409 93.3087 98.3589 93.2887ZM75.0489 120.179C63.6489 120.959 52.3089 122.449 41.0889 124.649C31.2489 126.569 35.4089 141.609 45.2389 139.689C55.1089 137.759 65.0189 136.469 75.0489 135.779C85.0089 135.099 85.0889 119.499 75.0489 120.179Z" fill="#B531E3"/>
</svg>
