<svg width="192" height="192" viewBox="0 0 192 192" fill="none" xmlns="http://www.w3.org/2000/svg">
<path d="M178.6 73.6C165.9 76.9 153.2 80.4 140.6 84.2C134.4 86.1 128.2 88 122 90.1C116.8 91.8 108.4 93 104.8 97.4C104 98.4 103.3 99.6 103 100.8C100.3 102.3 98.5999 105.3 99.8999 109.2C107.5 130.8 112.9 152.9 116.7 175.5C117.8 181.9 124.5 182.4 128.7 179.2C138.3 174.7 146.9 167.6 155.2 161C163.2 154.6 170.2 147.2 176 138.8C188.4 120.9 190.7 100.3 191.7 79.1C192 71.5 183.2 69.7 178.6 73.6ZM162.5 131C157.7 138 151.5 144.1 144.9 149.4C140.1 153.3 135.1 157.3 129.8 160.7C126.4 142.9 121.9 125.4 116 108.2C117.1 107.4 121.2 106.7 122.4 106.3C125.2 105.4 128 104.5 130.8 103.6C136.7 101.7 142.6 99.9 148.5 98.1C157.4 95.5 166.3 92.9 175.3 90.6C174.1 104.9 171.1 118.5 162.5 131ZM180.4 39.3C177.2 29.4 169.1 22.4 160.4 17.1C150.5 11.1 139.6 6.7 128.4 4C104 -1.9 80.4999 1.4 57.0999 9.2C51.5999 11 50.6999 16.9 52.6999 20.9C52.5999 22.2 52.9999 23.7 53.8999 25.2C65.6999 43.7 78.6999 61.3 92.7999 78.1C94.4999 80.2 96.5999 80.9 98.4999 80.7C100.6 82.1 103.4 82.5 106.3 80.8C128.5 67.9 152.2 58.4 177 52.2C183.7 50.5 184 43.2 180.4 39.3ZM102.3 65.1C90.7999 51.2 80.0999 36.7 70.1999 21.5C86.7999 16.8 103.5 14.7 121 18.2C130.2 20.1 139.1 23.1 147.5 27.5C153.2 30.5 159.7 34.1 163.4 39.6C142.1 45.7 121.6 54.3 102.3 65.1ZM102.2 176.9C99.9999 152.4 96.0999 128.2 90.3999 104.3C89.9999 102.3 88.9999 101 87.7999 100C73.3999 81 57.4999 63.2 39.8999 47C38.0999 45.4 36.1999 44.8 34.2999 44.9C31.7999 43.9 28.7999 44.1 26.2999 46.6C7.49992 65.2 -2.00008 92.8 0.399916 119.1C1.69992 133.3 5.89992 147.7 14.4999 159.2C23.5999 171.5 36.9999 180.2 51.1999 185.6C66.4999 191.5 83.0999 192.5 99.0999 189.5C105.9 188.4 106 180.8 102.2 176.9ZM33.1999 62.1C36.3999 65.1 39.4999 68.1 42.4999 71.2C36.0999 72.9 29.6999 74.9 23.4999 77C26.0999 71.7 29.2999 66.7 33.1999 62.1ZM17.0999 96.1C29.2999 91.2 41.8999 87.3 54.6999 84.3C58.0999 88.1 61.3999 91.9 64.5999 95.8C64.4999 95.8 64.2999 95.8 64.1999 95.8C54.5999 97.2 45.1999 99.3 35.9999 102.2C31.4999 103.6 27.0999 105.2 22.7999 106.9C20.4999 107.8 18.0999 109.1 15.5999 110C15.6999 105.3 16.1999 100.7 17.0999 96.1ZM19.4999 135.1C18.4999 132 17.6999 128.9 17.0999 125.7C24.3999 123.8 31.2999 120 38.4999 117.7C48.2999 114.5 58.2999 112.2 68.4999 110.8C70.7999 110.5 72.4999 108.7 73.3999 106.6C74.1999 107.6 74.9999 108.6 75.6999 109.6C76.4999 113.1 77.2999 116.7 78.0999 120.2C76.5999 119.4 74.7999 119.2 72.6999 119.8C54.9999 124.7 37.6999 131 20.8999 138.6C20.2999 137.4 19.7999 136.3 19.4999 135.1ZM55.0999 170.6C61.8999 167.3 68.9999 165 76.5999 163.7C86.4999 162 82.2999 147 72.4999 148.7C60.5999 150.8 49.1999 155.2 39.0999 161.8C35.2999 158.9 31.7999 155.7 28.7999 152C44.2999 145.1 60.2999 139.4 76.6999 134.9C78.2999 134.4 79.5999 133.6 80.3999 132.6C82.9999 146.9 84.9999 161.2 86.3999 175.7C75.8999 176.2 65.0999 174.5 55.0999 170.6Z" fill="#8200AF"/>
</svg>
