<svg width="128" height="114" viewBox="0 0 128 114" fill="none" xmlns="http://www.w3.org/2000/svg">
<path d="M57.2351 53.0356C57.3056 57.2779 52.6502 60.4643 48.785 60.1261C44.2722 59.7313 41.7676 55.8884 41.6945 51.676C41.4435 36.4161 67.1102 16.5776 80.2915 29.4153C92.9632 41.7667 79.9899 64.0708 68.7817 72.3957C60.7406 78.3676 50.6714 66.4446 58.755 60.4463C64.7777 55.9742 69.2768 49.4114 69.649 41.7145C69.7402 39.755 69.4758 40.826 68.3143 41.3669C66.5461 42.1859 65.0072 43.0249 63.4676 44.2153C60.5708 46.4614 57.1666 49.1147 57.2351 53.0356ZM49.2919 86.8018C49.5916 87.0489 50.1337 87.277 50.3641 87.3976C50.6754 87.6255 51.0019 87.7947 51.3635 87.9066C52.0431 88.0564 52.7217 88.2162 53.4013 88.3659C53.8396 88.4043 54.1445 88.3607 54.6687 88.3363C55.324 88.3033 55.4817 88.3372 55.9313 88.246C58.7857 87.6324 61.2895 85.6331 62.2768 82.8385C62.9574 80.9104 62.8954 78.6364 62.0136 76.7825C61.6048 75.8332 61.0009 75.0476 60.2021 74.4256C59.5151 73.6729 58.6686 73.1371 57.6842 72.8C55.7311 72.1774 53.4917 72.0718 51.6282 73.0632C49.8497 74.0017 48.3372 75.4555 47.6557 77.3934C47.6423 77.4324 47.6297 77.4614 47.6162 77.5004C47.9293 76.9054 48.2423 76.3104 48.5653 75.7163C48.5294 75.7835 48.4942 75.8406 48.4392 75.896C48.8938 75.4038 49.3376 74.9206 49.7923 74.4284C49.7598 74.4556 49.7381 74.4738 49.7056 74.5011C50.2693 74.1388 50.8222 73.7857 51.3859 73.4234C51.3218 73.468 51.2585 73.5026 51.1862 73.5264C51.8265 73.3214 52.4668 73.1165 53.108 72.9015C53.0356 72.9253 52.9641 72.9391 52.8935 72.943C53.5887 72.9135 54.2848 72.874 54.9801 72.8445C54.9095 72.8483 54.8298 72.8414 54.7609 72.8253C55.4404 72.9751 56.1191 73.1349 56.7986 73.2847C56.7596 73.2712 56.7306 73.2586 56.6916 73.2452C57.2866 73.5582 57.8816 73.8713 58.4757 74.1943C58.4077 74.1683 58.3514 74.1232 58.296 74.0681C57.4491 73.4219 56.5198 73.0294 55.4881 72.8889C54.4721 72.5692 53.4426 72.5192 52.3777 72.7573C51.3407 72.9075 50.4231 73.299 49.6158 73.9211C48.7211 74.3949 47.99 75.0637 47.4226 75.9275C46.3085 77.647 45.6394 79.7868 46.1118 81.8458C46.3168 82.4861 46.5217 83.1264 46.7367 83.7676C47.3411 85.005 48.1865 86.0125 49.2919 86.8018ZM15.8171 53.7285C15.3293 50.584 20.2614 45.9562 22.236 43.8102C25.2091 40.577 28.577 37.6494 32.0255 34.9497C39.3214 29.2338 47.4627 24.5254 56.0318 21.0089C71.0653 14.8557 89.7447 13.4986 102.976 24.5036C116.122 35.451 112.406 54.861 104.285 67.7122C95.0087 82.4096 79.8343 92.124 62.9682 95.8181C53.4101 97.903 42.6727 98.7805 33.0885 96.3459C26.1356 94.5832 16.2309 88.6976 19.6014 80.1187C23.2816 70.7538 8.648 65.3378 4.98037 74.6737C0.682536 85.5906 5.49553 97.3549 14.3224 104.431C23.9372 112.138 37.3814 113.596 49.2672 113.13C73.1485 112.208 95.9398 102.517 111.56 84.1488C126.352 66.7618 134.006 39.0534 119.374 19.2729C105.62 0.703547 79.3121 -2.53167 58.5207 3.68992C45.2951 7.6523 32.8523 14.4838 21.9996 22.9903C12.2233 30.6675 -1.66635 42.7931 0.472635 56.5518C2.01461 66.464 17.3664 63.6713 15.8171 53.7285Z" fill="#A1A1A1"/>
</svg>

