<svg width="185" height="181" viewBox="0 0 185 181" fill="none" xmlns="http://www.w3.org/2000/svg">
<path d="M87.2615 97.9843C86.9796 96.0423 86.1527 94.5947 85.0365 93.5836C73.0081 74.4525 59.503 56.3666 44.2625 39.6447C42.6785 37.9 40.8081 37.1341 38.9482 37.0516C36.5367 35.8168 33.5462 35.8061 30.8396 38.0588C5.52743 59.1228 -5.89078 96.008 3.37269 127.696C13.8671 163.557 52.3121 183.192 88.0477 179.754C94.8611 179.095 95.6944 171.75 92.3762 167.454C92.2928 144.199 90.6287 120.995 87.2615 97.9843ZM17.8167 121.511C12.0272 97.8467 19.1941 71.4609 36.3446 54.1899C49.5413 69.147 61.5535 85.1348 72.0969 102.078C75.0799 122.827 76.6772 143.696 76.8216 164.648C50.8626 163.732 24.1866 147.606 17.8167 121.511ZM172.478 76.0479C160.153 78.0915 147.867 80.3694 135.647 82.9341C129.583 84.2104 123.543 85.5491 117.508 86.9485C112.477 88.1244 104.518 88.5625 100.793 92.4727C99.9192 93.4 99.2256 94.4435 98.7576 95.547C95.9644 96.8384 94.0437 99.6317 95.0539 103.575C100.432 124.593 103.686 145.918 105.44 167.523C105.961 173.953 112.511 175.048 116.892 172.36C116.934 172.343 116.974 172.337 117.026 172.321C126.261 168.994 134.712 163.158 142.863 157.768C150.992 152.396 158.28 146.077 164.574 138.617C178.115 122.566 182.182 103.036 184.87 82.7535C185.875 75.2827 177.341 72.6689 172.478 76.0479ZM151.851 129.614C146.654 135.774 140.255 140.876 133.58 145.341C129.134 148.315 124.553 151.338 119.779 153.931C118.003 137.173 115.258 120.59 111.243 104.178C112.567 103.611 116.16 103.283 117.482 102.967C120.024 102.366 122.565 101.776 125.105 101.205C130.82 99.9079 136.559 98.6735 142.304 97.4897C150.716 95.7663 159.157 94.1759 167.608 92.6968C165.158 106.124 161.147 118.592 151.851 129.614ZM58.634 20.6349C68.2444 39.0626 79.0885 56.8153 91.0101 73.8391C92.5367 76.0104 94.4862 76.9037 96.4246 76.8926C98.4106 78.4015 101.093 78.9474 104.035 77.5685C125.986 67.2724 149.086 60.239 173.035 56.482C179.661 55.4455 180.602 48.2402 177.536 44.047C172.93 24.0695 148.354 11.8209 130.66 6.03685C108.214 -1.29737 85.8674 -0.130577 63.1901 5.27353C57.6031 6.60164 56.1357 12.2452 57.763 16.3627C57.5973 17.6833 57.843 19.1202 58.634 20.6349ZM121.97 19.6613C130.565 22.1599 138.835 25.7343 146.372 30.5696C151.39 33.7892 157.19 37.6092 160.373 42.8766C140.091 46.834 120.296 53.1328 101.436 61.6013C91.8841 47.7862 83.1603 33.4513 75.2298 18.6538C90.8147 15.7209 106.287 15.1071 121.97 19.6613Z" fill="#B531E3"/>
</svg>
