<svg width="151" height="191" viewBox="0 0 151 191" fill="none" xmlns="http://www.w3.org/2000/svg">
<path d="M140.87 20.2083C129.43 21.6842 117.947 22.7667 106.437 23.3772C95.8369 23.9452 84.219 25.1054 73.9472 21.7406C69.9546 20.4273 65.5157 21.2997 63.5565 25.4425C62.8286 26.9794 62.6916 28.9658 63.1182 30.8079C58.1908 51.6692 46.9489 70.2189 35.6496 88.2304C34.9627 89.2465 34.3018 90.2876 33.6851 91.3669C31.5793 95.0167 33.7876 100.057 37.387 101.758C41.5656 103.743 45.5311 101.64 47.7777 98.0557C48.0464 97.6258 48.3134 97.2058 48.5821 96.7759C60.4718 78.9294 102.632 66.8976 105.126 97.2112C106.305 111.544 96.2009 125.136 86.7565 134.874C77.2755 144.646 65.385 152.074 52.5441 156.542C45.3178 159.055 37.05 160.969 29.5792 158.362C23.5062 156.235 17.8278 150.085 20.7517 143.351C24.7411 134.144 10.6519 127.435 6.6608 136.652C2.80401 145.568 4.17776 155.802 10.3244 163.384C16.8303 171.406 26.9805 174.942 37.0421 175.122C56.0293 175.475 76.1516 164.726 90.2862 152.748C105.254 140.075 119.541 122.052 120.669 101.719C121.791 81.5369 108.169 63.7108 87.3553 63.1784C80.2596 62.9934 73.0917 64.0244 66.2866 66.1652C70.7684 57.2175 74.5806 47.9792 77.281 38.2503C86.0863 39.6811 95.0003 39.5165 104.089 39.1085C116.892 38.5431 129.656 37.392 142.363 35.7538C152.258 34.4623 150.865 18.9244 140.87 20.2083Z" fill="#B531E3"/>
</svg>
