<svg width="169" height="171" viewBox="0 0 169 171" fill="none" xmlns="http://www.w3.org/2000/svg">
<path fill-rule="evenodd" clip-rule="evenodd" d="M65.5461 95.9129C60.4923 67.1696 58.8077 38.119 61.1049 8.91467C62.0238 -2.92077 80.4012 -2.92077 79.4823 8.91467C77.4914 36.4282 78.5634 63.9418 83.3109 90.9942C85.3018 102.676 67.537 107.595 65.5461 95.9129ZM49.3129 161.699C-1.5312 137.414 -15.1611 69.0141 18.3776 24.9002C25.4223 15.524 41.3494 24.7465 34.1516 34.1226C19.4497 53.4897 13.7833 78.5439 20.9811 102.061C33.6921 143.255 82.6985 165.388 120.525 142.179C137.524 131.727 149.01 112.359 149.776 92.3775C150.542 71.3197 138.29 47.9562 114.553 49.3396C102.761 49.9544 102.761 31.5096 114.553 30.8947C148.551 29.0502 169.685 62.5584 168 93.6072C166.469 119.584 151.92 144.484 129.714 158.164C105.67 172.92 74.5818 173.689 49.3129 161.699Z" fill="#B531E3"/>
</svg>
