<svg width="205" height="190" viewBox="0 0 205 190" fill="none" xmlns="http://www.w3.org/2000/svg">
<path d="M64.0141 66.9141C63.2335 56.8438 78.7828 55.5838 79.5548 65.5545C81.0588 83.8932 85.8067 101.446 93.7811 118.014C94.1409 118.685 94.4012 119.365 94.7523 119.937C95.9876 121.435 95.6974 121.561 93.9989 120.505C94.6004 119.348 95.7087 118.247 96.3102 117.09C98.1145 113.62 99.8019 109.959 101.706 106.48C105.57 99.0144 109.642 91.6314 114.03 84.4215C131.549 55.1834 152.265 28.0747 176.023 3.61099C183.028 -3.52666 194.945 6.47277 187.94 13.6104C175.784 26.1175 164.386 39.2609 153.855 53.1315C144.761 65.0696 136.308 77.4534 128.596 90.2743C124.562 96.9513 120.746 103.81 117.037 110.76C113.766 116.968 111.197 124.32 106.751 129.728C102.033 135.461 93.7397 138.195 87.0541 134.062C80.9014 130.283 78.0984 121.193 75.4399 114.901C69.0906 99.6964 65.3526 83.36 64.0141 66.9141ZM118.929 25.6711C96.0461 10.8088 64.9088 14.0349 42.2365 27.9639C18.04 42.8294 6.0144 72.8919 7.8309 100.539C9.75199 129.381 27.3818 155.343 51.9491 169.958C78.7303 185.784 113.326 185.367 140.311 170.258C168.731 154.32 185.641 122.726 186.248 90.651C186.28 86.4322 181.683 83.2206 177.798 83.5605C173.215 83.9615 170.74 87.7918 170.707 92.0107C170.304 114.933 158.655 137.835 140.384 151.58C119.952 167.02 91.5477 170.509 67.9879 160.524C46.9322 151.625 30.5189 132.684 25.0537 110.375C19.7144 88.3567 26.1762 62.3947 42.9872 46.8704C59.0535 32.0136 89.6778 25.2187 108.938 37.6875C112.452 39.99 116.987 40.1955 119.896 36.7288C122.45 33.7951 122.542 27.9648 118.929 25.6711Z" fill="#B531E3"/>
</svg>
