<svg width="114" height="169" viewBox="0 0 114 169" fill="none" xmlns="http://www.w3.org/2000/svg">
<path d="M97.7506 13.9363C88.0806 39.5163 80.6406 65.8563 75.4306 92.6463C56.6806 90.9563 37.7706 92.5863 19.6506 97.7263C28.4806 68.1963 36.3606 38.3663 38.5806 7.49626C39.3006 -2.52374 23.7006 -2.47374 22.9806 7.49626C20.5006 41.8963 10.3106 75.0563 0.280619 107.856C-1.32938 113.136 4.27062 119.666 9.87062 117.446C29.8806 109.556 51.3606 106.196 72.7006 107.936C69.8806 125.366 67.9706 142.966 67.0406 160.636C66.5106 170.666 82.1106 170.636 82.6406 160.636C83.5406 143.566 85.4106 126.586 88.1706 109.776C96.0206 109.096 98.9006 97.1063 90.8706 94.8263C96.0206 68.7263 103.361 43.0563 112.791 18.0963C116.341 8.68626 101.271 4.61626 97.7506 13.9363Z" fill="#B531E3"/>
</svg>
