<svg width="176" height="206" viewBox="0 0 176 206" fill="none" xmlns="http://www.w3.org/2000/svg">
<path d="M175.771 164.11C176.045 174.124 160.504 175.484 160.23 165.469C160.005 157.157 159.472 148.772 158.839 140.395C157.408 119.44 155.668 98.4118 153.44 77.5266C152.386 67.7813 151.324 57.9364 149.972 48.2173C149.424 44.2499 148.867 40.1829 148.22 36.2243C148.176 35.7262 148.033 35.2368 147.981 34.6391C132.779 37.5752 117.703 40.8015 102.661 44.4262C94.1079 46.4795 85.6539 48.5241 77.2173 50.7679C70.7383 52.439 62.8036 53.5347 56.5637 56.791C64.7295 99.6423 67.8409 143.237 73.2348 186.532C89.3147 181.009 105.373 176.392 122.599 174.785C132.652 173.805 133.912 189.354 123.958 190.325C104.749 192.207 87.1926 198.059 69.19 204.553C62.4732 206.947 57.7787 200.331 59.019 195.003C58.6504 194.232 58.3815 193.453 58.2943 192.456C52.4098 146.996 49.3968 101.084 40.6321 55.9764C40.2934 54.3999 40.7604 52.8533 41.5524 51.5794C41.6769 49.5609 42.5984 47.4726 44.7764 45.9771C52.1458 40.7148 61.3406 39.1073 69.9764 36.8461C79.1016 34.4416 88.2355 32.1368 97.3868 30.0312C101.618 29.0587 105.949 28.0775 110.18 27.105C109.929 26.5247 109.885 26.0266 109.725 25.338C109.29 22.6657 108.856 19.9934 108.412 17.2215C93.2103 20.1576 78.0433 23.4922 62.9932 27.0173C54.4396 29.0706 45.9857 31.1152 37.5491 33.359C31.0701 35.0301 23.1354 36.1258 16.8955 39.382C25.0613 82.2334 28.1726 125.828 33.5578 169.023C36.1865 168.09 38.824 167.257 41.4614 166.424C51.0324 163.379 56.4328 178.064 46.8531 181.01C40.9893 182.828 35.1516 184.945 29.4135 187.053C22.6966 189.447 18.0021 182.831 19.2424 177.503C18.8738 176.732 18.6049 175.953 18.5177 174.957C12.6245 129.397 9.51192 83.4934 0.747165 38.3856C0.408477 36.8092 0.87546 35.2626 1.66745 33.9887C1.792 31.9702 2.7135 29.8819 4.89144 28.3864C12.2608 23.1241 21.4557 21.5166 30.0915 19.2553C39.2167 16.8509 48.3506 14.546 57.5019 12.4404C76.1855 7.99511 94.904 3.94828 113.666 0.399556C116.728 -0.169485 120.974 2.47048 121.634 5.4242C123.071 11.5222 124.201 17.5467 125.14 23.6882C134.598 21.6561 144.066 19.7236 153.542 17.8907C156.604 17.3216 160.851 19.9616 161.511 22.9153C163.473 31.5772 164.838 40.2915 166.003 49.0231C171.043 87.1288 174.624 125.764 175.771 164.11ZM120.602 50.9876C106.032 54.2699 91.819 59.3279 77.1674 62.8182C73.0357 63.7819 71.2064 69.2622 72.6246 72.8523C74.2123 77.2306 78.527 78.3588 82.6588 77.395C97.2194 74.0131 111.433 68.9551 126.093 65.5645C130.225 64.6007 132.054 59.1204 130.636 55.5304C128.957 51.2604 124.634 50.0325 120.602 50.9876ZM118.69 88.7981C118.359 85.0126 114.38 80.8435 110.24 81.7076C101.08 83.7136 91.937 85.9188 82.7769 87.9248C78.6365 88.7889 75.2855 91.7924 75.6864 96.3749C76.0176 100.16 79.9961 104.33 84.1366 103.465C93.2966 101.459 102.439 99.2542 111.608 97.3479C115.74 96.3841 119.091 93.3806 118.69 88.7981ZM118.403 119.942C118.063 116.056 114.102 112.087 109.953 112.851C101.862 114.462 93.6463 115.783 85.5647 117.494C81.4243 118.358 78.0733 121.362 78.4742 125.944C78.8054 129.73 82.7839 133.899 86.9243 133.035C95.0147 131.424 103.222 130.003 111.312 128.392C115.462 127.627 118.804 124.524 118.403 119.942ZM98.8897 144.737C96.9098 143.906 94.9 143.881 92.8428 144.463C91.6736 144.866 90.3959 145.179 89.2266 145.582C87.3687 146.146 85.715 147.897 84.8583 149.578C84.0103 151.359 83.821 153.784 84.5843 155.625C85.3476 157.465 86.6999 159.154 88.5802 159.993C90.5601 160.824 92.5787 160.948 94.6271 160.267C95.7964 159.864 97.074 159.551 98.2433 159.148C100.002 158.592 101.755 156.833 102.612 155.152C103.46 153.371 103.649 150.945 102.886 149.105C102.122 147.265 100.77 145.576 98.8897 144.737Z" fill="#B531E3"/>
</svg>
