<svg width="185" height="199" viewBox="0 0 185 199" fill="none" xmlns="http://www.w3.org/2000/svg">
<path d="M36.9003 81.7C33.8003 91.2 18.8003 87.1 21.9003 77.6C27.7003 59.5 51.0003 54.9 64.6003 44.7C77.2003 35.2 82.3003 20.5 85.6003 5.69998C86.6003 1.39998 91.2003 -0.600024 95.2003 0.299976C107 2.69998 114.1 13.4 116.2 24.7C117.7 33 117.6 41.8 116 50.1C114.5 57.7 110.2 64.4 105.5 70.5C100.8 76.1 95.1003 81.1 91.0003 87.2C88.8003 90.4 92.3003 93.9 93.6003 97.2C95.3003 101.5 96.0003 106.2 96.0003 110.8C95.9003 129.5 83.9003 144.4 71.8003 157.4C65.0003 164.8 53.9003 153.7 60.8003 146.4C70.5003 136 82.3003 122.9 80.3003 107.4C79.3003 99.4 72.6003 93.4 74.9003 84.9C76.6003 78.6 82.2003 73.4 86.4003 68.6C90.8003 63.6 95.3003 58.7 98.5003 52.8C101.6 46.9 101.9 39.9 101.6 33.5C101.4 28.9 100.6 24.1 98.2003 20.2C96.3003 17.1 94.3003 16 91.1003 15.3C94.3003 13.5 97.5003 11.7 100.7 9.89998C97.0003 25.8 91.0003 42 78.5003 53.3C72.0003 59.1 64.6003 63.1 56.9003 67.1C52.4003 69.4 48.0003 71.9 43.8003 74.7C41.2003 76.4 37.8003 78.6 36.9003 81.7ZM180.4 137.1C174.9 142.4 165.5 144.9 158.2 146.4C156.5 146.7 154.9 147 153.2 147.2C153.3 147.6 153.4 148.1 153.4 148.5C156.1 151 157.8 154.3 157.5 158.7C157 165.6 151.1 169.4 145.1 171.3C142.7 172.1 140.1 172.7 137.4 173.2C139.6 175.4 141 178.1 141 181.7C141 189 134.6 192.5 128.4 193.9C121.3 195.5 113.9 196.3 106.5 196.4C100 196.4 92.3003 196.5 86.3003 193.5C85.8003 193.3 85.4003 193 85.0003 192.7C84.1003 195.6 81.7003 198.1 78.0003 198.4C55.7003 200.4 29.8003 193.8 14.5003 176.5C-2.59972 157.1 -2.79972 128.5 9.50028 106.7C14.4003 98 27.9003 105.8 23.0003 114.6C13.7003 131.1 13.4003 153.9 27.7003 167.8C40.8003 180.5 60.3003 184.5 78.0003 182.9H78.1003C77.7003 180.9 77.8003 178.8 78.5003 176.7C80.5003 170.6 86.5003 167.7 92.1003 165.7C93.1003 165.3 94.2003 165 95.2003 164.7C93.0003 161.5 92.1003 157.6 93.4003 153.5C95.5003 146.8 102.2 144.2 108.5 142.9C110.2 142.5 111.8 142.2 113.5 141.9C112.1 141.3 110.7 140.6 109.3 139.9C101.6 135.9 95.5003 127.4 102 119.3C104.3 116.5 107.6 114.9 111.2 113.9C110.3 113.5 109.3 113.1 108.5 112.6C102.1 109 98.9003 101.4 102.6 94.6C106.2 88 115.4 85.3 122.1 83.5C130.1 81.4 138.4 80.9 146.6 81.9C147.6 82 148.5 82.3 149.4 82.6C153.1 82.7 156.8 83.6 160.3 85.1C167 88 174.2 94.3 172.6 102.5C171.7 106.7 169 109.4 165.6 111.3C171 111.8 176.4 113 179.9 116.9C180.6 117.7 181.1 118.6 181.5 119.5C186.2 124 185.1 132.5 180.4 137.1ZM121.3 100.1C121.2 100.1 121 100.2 120.8 100.3C124.2 101.2 127.6 101.8 131 102C138.6 102.5 146.5 101.8 153.8 99.3C153.4 99.1 153.1 98.9 152.8 98.8C149.1 97.5 145.6 98.1 142.1 99.4C138.6 100.7 135.8 99.5 134.2 97.2C129.9 97.6 125.5 98.6 121.3 100.1ZM137.4 157.2C137.5 157.2 137.9 157.1 138.3 156.9C137.4 156.2 136.7 155.3 136.2 154.4C135.6 154.5 135 154.5 134.3 154.6C130.7 154.9 127.1 155.3 123.5 155.8C120.3 156.3 117.1 156.9 114 157.5C115.2 157.7 116.3 158 117.5 158.1C120.8 158.6 124.3 158.6 127.6 158.5C131 158.5 134.2 158 137.4 157.2ZM118.7 179.9C119 179.9 119.3 179.8 119.7 179.7C119.5 179.4 119.4 179.1 119.3 178.8C116 178.2 112.6 177.9 109.1 178C106.1 178.1 103.3 178.6 100.4 179.3C99.4003 179.6 98.4003 179.9 97.3003 180.2C97.6003 180.3 97.8003 180.3 98.1003 180.3C101.9 180.7 105.7 180.7 109.5 180.6C112.6 180.6 115.7 180.4 118.7 179.9ZM126 183.9C125.9 183.9 125.8 183.8 125.7 183.8C126.5 184.1 126.6 184.1 126 183.9ZM165 128.1C165.7 127.8 166.4 127.4 167.1 127.1C164.2 126.3 159.1 126.7 157 126.6C151.9 126.3 146.8 126.3 141.7 126.4C136.3 126.6 130.8 126.9 125.4 127.6C124.2 127.7 122.4 127.8 120.6 128C122.8 128.9 125.2 129.7 127.5 130.3C132.4 131.6 137.3 132.3 142.3 132.3C147.3 132.3 152.3 131.8 157.2 130.6C159.9 129.9 162.5 129.1 165 128.1Z" fill="#B531E3"/>
</svg>
