<svg width="106" height="30" viewBox="0 0 106 30" fill="none" xmlns="http://www.w3.org/2000/svg">
<path d="M31.4077 10.319V29.4037H39.082C42.6162 29.4037 44.9387 27.2832 44.9387 23.9509C44.9387 22.3353 44.4338 21.1236 43.2221 20.1138C42.8181 19.7099 42.3133 19.5079 41.8084 19.306C42.2123 19.104 42.6162 18.9021 42.9191 18.5991C43.8279 17.7913 44.2318 16.6806 44.2318 15.2669C44.2318 13.8532 43.7269 12.7425 42.6162 11.7327C41.3035 10.521 39.7888 10.319 37.8703 10.319H31.4077ZM37.4664 14.1561C37.7693 14.1561 38.3751 14.1561 38.88 14.3581C39.3849 14.5601 39.7888 15.1659 39.7888 15.9737C39.7888 16.4786 39.5869 16.9835 39.3849 17.2864C38.981 17.7913 38.4761 17.7913 37.8703 17.7913H35.6488V14.1561H37.4664ZM37.9712 21.4265C38.5771 21.4265 39.082 21.5275 39.5869 21.9314C39.9908 22.2343 40.1927 22.9412 40.1927 23.547C40.1927 24.0519 39.9908 24.6578 39.7888 25.0617C39.2839 25.6675 38.7791 25.8695 38.0722 25.8695H35.7497V21.4265H37.9712ZM45.1406 10.319V13.9542C45.1406 13.9542 49.9875 13.9542 50.4924 13.9542V29.4037H54.8344V14.0552C55.3393 14.0552 59.4794 14.0552 59.4794 14.0552L60.6911 10.42H45.1406V10.319ZM61.8019 10.319V29.4037H68.9713C70.5869 29.4037 72.1015 28.9998 73.1113 28.293C74.1211 27.5861 75.4338 26.1724 75.4338 23.446C75.4338 20.9216 74.2221 19.5079 73.5152 18.9021C72.7074 18.2962 71.2937 17.4884 68.8703 17.4884H66.1439V13.9542H73.3133L74.626 10.319H61.8019ZM68.2644 21.2246C68.8703 21.2246 69.4761 21.3255 69.7791 21.6285C70.3849 22.0324 70.5869 22.6382 70.5869 23.446C70.5869 24.3548 70.284 24.7588 70.082 25.0617C69.6781 25.5666 69.1732 25.7685 68.3654 25.7685H66.0429V21.2246H68.2644ZM18.5836 10.319H4.14387C4.14387 10.319 4.54778 11.7327 5.05266 12.4395H17.9777C17.9777 12.4395 20.4012 14.3581 21.6129 17.7913H7.981C5.65853 15.8728 3.84094 13.3483 2.93214 10.42C3.03312 10.0161 3.1341 9.71314 3.33605 9.41021H18.4826C19.6944 8.6024 20.8051 7.28969 20.8051 7.28969H4.4468C4.64876 6.88578 4.85071 6.58285 5.15364 6.27992H21.8149C22.2188 5.57308 23.1276 3.95744 23.1276 3.95744H6.97123C7.37514 3.55353 7.77905 3.2506 8.18296 2.94767H23.6325C24.0364 1.9379 24.3393 0.827148 24.3393 0.827148H7.57709C4.4468 3.14962 2.02335 6.48187 0.912598 10.319C2.02335 14.1561 4.34582 17.5894 7.57709 19.8109H24.2383C24.3393 19.9118 24.0364 14.863 18.5836 10.319Z" fill="white"/>
<path d="M78.0593 10.8238C78.0593 11.0258 78.0593 14.56 78.0593 14.9639C78.2612 14.8629 78.5642 14.661 78.5642 14.661C78.9681 14.459 80.9876 13.2473 82.9062 13.1463C83.714 13.1463 84.4209 13.3483 84.8248 13.7522C85.2287 14.1561 85.4306 14.661 85.4306 15.1659C85.4306 16.9834 84.2189 17.8922 82.7042 18.801C79.0691 21.0225 76.7466 23.244 76.7466 27.889C76.7466 27.889 76.7466 28.9997 76.7466 29.2017C77.0495 29.2017 88.6619 29.2017 88.9648 29.2017V25.4655H81.3915C81.7954 23.9509 82.7042 22.9411 84.0169 22.1333L85.9355 20.9216C88.157 19.5079 89.5707 17.2864 89.6717 15.0649C89.6717 13.5502 89.2678 12.2375 88.258 11.1268C87.1472 10.016 85.5316 9.41016 83.5121 9.41016C81.5935 9.41016 79.6749 9.91504 78.0593 10.8238ZM97.7498 9.81406C97.6489 9.91504 89.9746 21.9313 89.9746 22.0323V25.4655H98.6586V29.2017H102.294V25.4655H104.717L105.929 21.7294H102.294V17.8922H98.6586V21.7294H94.4176C94.7205 21.2245 100.88 11.4297 101.991 9.81406H97.7498Z" fill="white"/>
</svg>
