<svg width="53" height="43" viewBox="0 0 53 43" fill="none" xmlns="http://www.w3.org/2000/svg">
<path d="M19.8738 22.272C22.0847 22.272 24.396 22.272 26.6069 22.272C26.6069 23.076 26.6069 23.8799 26.6069 24.7843C25.401 24.7843 23.8936 24.7843 22.6876 24.7843C22.6876 26.4927 22.6876 28.1006 22.6876 29.809C23.4916 29.809 24.597 29.809 25.5014 29.809C25.5014 30.7134 25.5014 31.5174 25.5014 32.3213C24.6975 32.3213 23.5921 32.3213 22.6876 32.3213C22.6876 35.6376 22.6876 38.8534 22.6876 42.1696C21.6827 42.1696 20.8788 42.1696 19.8738 42.1696C19.8738 35.5371 19.8738 29.005 19.8738 22.272ZM28.2148 42.1696C29.2197 42.1696 30.0236 42.1696 31.0286 42.1696C31.0286 38.9539 31.0286 35.6376 31.0286 32.4218C31.933 32.4218 32.9379 32.4218 33.8424 32.4218C33.8424 31.5174 33.8424 30.7134 33.8424 29.809C32.9379 29.809 31.933 29.809 31.0286 29.809C31.0286 28.1006 31.0286 26.4927 31.0286 24.8848C32.2345 24.8848 33.7419 24.8848 34.9478 24.8848C34.9478 23.9804 34.9478 23.1765 34.9478 22.272C32.7369 22.272 30.3251 22.272 28.2148 22.272C28.2148 28.9046 28.2148 35.5371 28.2148 42.1696ZM8.31714 7.09757C8.31714 7.09757 5.70432 7.09757 0.880655 7.09757C0.880655 7.70053 0.880655 8.30348 0.880655 9.00694C3.99594 9.00694 5.10136 9.00694 5.10136 9.00694L0.780162 11.3183C0.780162 11.3183 0.780162 12.6247 0.780162 13.2276C5.70432 13.2276 3.39298 13.2276 8.21665 13.2276C8.21665 12.6247 8.21665 12.0217 8.21665 11.4188C5.10136 11.4188 3.99594 11.4188 3.99594 11.4188L8.21665 9.10743V7.09757H8.31714ZM1.6846 15.2375C2.38805 14.735 3.49347 14.5341 4.29742 14.5341C4.69939 14.5341 4.4984 14.5341 5.00087 14.5341C5.50333 14.5341 6.20678 14.6345 6.70925 14.8355C8.11615 15.2375 8.71911 16.2424 8.71911 17.5488C8.71911 18.9557 7.91517 20.0612 6.50826 20.3626C6.0058 20.4631 5.60383 20.5636 5.20185 20.5636C5.20185 20.5636 4.69939 20.5636 4.29742 20.5636C3.39298 20.5636 2.18706 20.2622 1.48361 19.6592C0.177204 18.4533 0.277697 16.1419 1.6846 15.2375ZM2.68953 17.5488C2.68953 18.1518 3.39298 18.4533 4.09643 18.4533H5.40284C6.10629 18.4533 6.80974 18.1518 6.80974 17.5488C6.80974 16.9459 6.20679 16.6444 5.40284 16.6444H4.09643C3.29249 16.5439 2.68953 16.8454 2.68953 17.5488ZM6.40777 5.48968C7.01073 5.48968 7.61369 5.48968 8.31714 5.48968C8.31714 4.78623 8.31714 4.18327 8.31714 3.47982V0.666016H6.70925V3.68081C6.50826 3.68081 6.30728 3.68081 6.20678 3.68081C6.10629 3.68081 6.0058 3.68081 6.0058 3.68081C5.90531 3.68081 5.70432 3.68081 5.50333 3.68081C5.50333 3.07785 5.50333 1.97242 5.50333 1.36947C4.90038 1.36947 4.4984 1.36947 3.79495 1.36947C3.79495 1.97242 3.79495 3.07785 3.79495 3.68081C3.19199 3.68081 3.19199 3.68081 3.19199 3.68081C3.19199 3.68081 3.19199 3.68081 2.58904 3.68081C2.58904 2.77637 2.58904 1.57045 2.58904 0.666016H1.6846H0.880655V5.48968H2.79002C6.40777 5.48968 2.79002 5.48968 6.40777 5.48968ZM36.5557 42.1696H43.2887V39.5568H39.3695C39.3695 37.2455 39.3695 34.8336 39.3695 32.4218C40.2739 32.4218 41.2788 32.4218 42.1833 32.4218C42.1833 31.5174 42.1833 30.7134 42.1833 29.809C41.2788 29.809 40.2739 29.809 39.3695 29.809C39.3695 28.1006 39.3695 26.4927 39.3695 24.8848C40.5754 24.8848 42.0828 24.8848 43.2887 24.8848C43.2887 23.9804 43.2887 23.1765 43.2887 22.272C41.0779 22.272 36.5557 22.272 36.5557 22.272V42.1696ZM17.864 26.7942C17.864 28.7036 17.864 35.9391 17.864 37.8484C17.864 38.9539 17.663 39.9588 17.06 40.8632C15.6531 42.9736 12.9398 43.1746 11.3319 41.2652C10.528 40.3608 10.2265 39.1548 10.2265 37.9489C10.2265 37.0445 10.2265 27.6986 10.2265 26.7942C10.2265 25.5883 10.528 24.3824 11.3319 23.4779C12.9398 21.6691 15.7536 21.7695 17.06 23.8799C17.663 24.6838 17.864 25.6888 17.864 26.7942ZM14.9497 32.3213C14.9497 30.1105 14.9497 27.7991 14.9497 26.8947C14.9497 25.1863 14.3467 24.8848 13.9447 24.8848C13.4423 24.8848 12.9398 25.2868 12.9398 26.8947C12.9398 28.7036 12.9398 30.5124 12.9398 32.3213C12.9398 34.0297 12.9398 35.8386 12.9398 37.7479C12.9398 39.4563 13.4423 39.7578 13.9447 39.7578C14.4472 39.7578 14.9497 39.4563 14.9497 37.7479C14.9497 36.8435 14.9497 34.5322 14.9497 32.3213ZM45.0976 42.1696H51.8306V39.5568H47.9114C47.9114 37.2455 47.9114 34.8336 47.9114 32.4218C48.8158 32.4218 49.8208 32.4218 50.7252 32.4218C50.7252 31.5174 50.7252 30.7134 50.7252 29.809C49.8208 29.809 48.8158 29.809 47.9114 29.809C47.9114 28.1006 47.9114 26.4927 47.9114 24.8848C49.1173 24.8848 50.6247 24.8848 51.8306 24.8848C51.8306 23.9804 51.8306 23.1765 51.8306 22.272C49.6198 22.272 45.0976 22.272 45.0976 22.272V42.1696ZM6.0058 38.9539C5.70432 39.7578 4.90038 40.0593 4.4984 38.6524C4.39791 38.2504 4.29742 37.346 4.19692 36.542C3.99594 33.4267 3.99594 32.1203 4.19692 29.206C4.39791 26.9952 4.39791 26.3922 4.4984 26.1912C4.69939 24.5834 5.60383 24.6838 5.90531 25.7893C6.20679 26.5932 6.20678 27.0957 6.20678 27.0957C6.20678 27.0957 7.91517 26.4927 8.71911 26.1912C8.71911 26.1912 8.41763 24.8848 8.01566 24.0809C7.4127 22.875 6.40777 22.071 5.20185 22.071C3.99594 22.071 3.0915 22.5735 2.48854 23.7794C1.98608 24.7843 1.78509 25.4878 1.48361 26.8947C0.981148 30.5124 0.981148 34.3312 1.48361 37.6474C1.58411 38.6524 1.98608 40.0593 2.68953 41.0642C3.79495 42.7726 5.60383 43.0741 7.11122 41.8682C8.11615 40.9637 8.51812 39.7578 8.8196 38.4514C8.01566 38.1499 7.21172 37.8484 6.40777 37.547C6.30728 37.547 6.20679 38.3509 6.0058 38.9539ZM8.31714 7.09757C8.31714 7.09757 5.70432 7.09757 0.880655 7.09757C0.880655 7.70053 0.880655 8.30348 0.880655 9.00694C3.99594 9.00694 5.10136 9.00694 5.10136 9.00694L0.780162 11.3183C0.780162 11.3183 0.780162 12.6247 0.780162 13.2276C5.70432 13.2276 3.39298 13.2276 8.21665 13.2276C8.21665 12.6247 8.21665 12.0217 8.21665 11.4188C5.10136 11.4188 3.99594 11.4188 3.99594 11.4188L8.21665 9.10743V7.09757H8.31714ZM1.6846 15.2375C2.38805 14.735 3.49347 14.5341 4.29742 14.5341C4.69939 14.5341 4.4984 14.5341 5.00087 14.5341C5.50333 14.5341 6.20678 14.6345 6.70925 14.8355C8.11615 15.2375 8.71911 16.2424 8.71911 17.5488C8.71911 18.9557 7.91517 20.0612 6.50826 20.3626C6.0058 20.4631 5.60383 20.5636 5.20185 20.5636C5.20185 20.5636 4.69939 20.5636 4.29742 20.5636C3.39298 20.5636 2.18706 20.2622 1.48361 19.6592C0.177204 18.4533 0.277697 16.1419 1.6846 15.2375ZM2.68953 17.5488C2.68953 18.1518 3.39298 18.4533 4.09643 18.4533H5.40284C6.10629 18.4533 6.80974 18.1518 6.80974 17.5488C6.80974 16.9459 6.20679 16.6444 5.40284 16.6444H4.09643C3.29249 16.5439 2.68953 16.8454 2.68953 17.5488ZM6.40777 5.48968C7.01073 5.48968 7.61369 5.48968 8.31714 5.48968C8.31714 4.78623 8.31714 4.18327 8.31714 3.47982V0.666016H6.70925V3.68081C6.50826 3.68081 6.30728 3.68081 6.20678 3.68081C6.10629 3.68081 6.0058 3.68081 6.0058 3.68081C5.90531 3.68081 5.70432 3.68081 5.50333 3.68081C5.50333 3.07785 5.50333 1.97242 5.50333 1.36947C4.90038 1.36947 4.4984 1.36947 3.79495 1.36947C3.79495 1.97242 3.79495 3.07785 3.79495 3.68081C3.19199 3.68081 3.19199 3.68081 3.19199 3.68081C3.19199 3.68081 3.19199 3.68081 2.58904 3.68081C2.58904 2.77637 2.58904 1.57045 2.58904 0.666016H1.6846H0.880655V5.48968H2.79002C6.40777 5.48968 2.79002 5.48968 6.40777 5.48968Z" fill="white"/>
<path d="M22.989 20.7645C25.0994 20.7645 26.3053 19.5586 26.5063 17.3478C26.5063 16.9458 26.6068 16.8453 26.6068 16.4433C26.6068 11.4187 26.6068 0.866909 26.6068 0.56543C25.6018 0.56543 24.7979 0.56543 23.8935 0.56543C23.8935 0.866909 23.8935 11.3182 23.8935 16.3428C23.8935 16.6443 23.8935 16.9458 23.793 17.3478C23.6925 17.8502 23.4915 18.1517 23.0895 18.1517C22.5871 18.1517 22.3861 17.8502 22.3861 17.4483C22.3861 17.1468 22.3861 16.7448 22.3861 16.4433C22.3861 11.4187 22.3861 0.665923 22.3861 0.665923H19.5723C19.5723 0.665923 19.5723 11.3182 19.5723 16.2423C19.5723 16.5438 19.5723 17.1468 19.5723 17.4483C19.6728 19.7596 21.0797 20.7645 22.989 20.7645Z" fill="white"/>
<path d="M41.4794 0.56543L39.4696 8.00191V0.56543H36.6558C36.6558 13.1271 36.6558 13.1271 36.6558 20.463C37.6607 20.463 39.4696 20.463 39.4696 20.463V14.0315L40.0725 11.9211L41.2784 20.463C42.1829 20.463 43.2883 20.463 44.1927 20.463C44.1927 20.1616 42.0824 8.10241 42.0824 8.10241L44.3937 0.56543H41.4794Z" fill="white"/>
<path d="M51.0265 12.4243C49.9211 9.71099 48.9161 7.70113 47.9112 5.38979C47.8107 5.1888 47.7102 4.68634 47.6097 4.38486C47.5092 3.7819 47.8107 3.27944 48.3132 3.27944C48.7151 3.17894 49.0166 3.37993 49.2176 3.98289C49.3181 4.28437 49.6196 5.08831 49.6196 5.08831L52.0314 4.08338C52.0314 4.08338 51.6294 2.77697 51.2275 2.07352C50.4235 0.767111 49.2176 0.264645 47.8107 0.465631C46.6048 0.666617 45.8008 1.26958 45.3989 2.47549C44.6954 4.18387 45.1979 6.09324 45.9013 7.70113C47.0068 10.2135 47.5092 11.5199 48.8156 14.4342C49.2176 15.2381 49.5191 16.444 49.5191 17.1475C49.5191 17.9514 49.0166 18.1524 48.6146 18.0519C47.8107 17.8509 47.6097 16.1425 47.6097 16.1425L45.0974 17.047C45.0974 17.047 45.1979 18.2529 45.8008 19.1573C46.7053 20.6647 47.6097 20.9662 48.9161 20.9662C50.323 20.9662 51.5289 19.9613 52.0314 18.3534C52.4334 16.5445 52.0314 14.7356 51.0265 12.4243Z" fill="white"/>
<path d="M32.7369 17.2471C32.4354 18.051 31.6315 18.3525 31.2295 16.9456C31.129 16.5436 31.0285 15.6392 30.9281 14.8353C30.7271 11.72 30.7271 10.4136 30.9281 7.49926C31.129 5.28842 31.129 4.68546 31.2295 4.48447C31.4305 2.87658 32.335 2.97708 32.6364 4.0825C32.8374 4.88644 32.9379 5.38891 32.9379 5.38891C32.9379 5.38891 34.6463 4.78595 35.4502 4.48447C35.4502 4.48447 35.1488 3.17806 34.7468 2.37412C34.1438 1.1682 33.1389 0.364258 31.933 0.364258C30.7271 0.364258 29.8226 0.866723 29.2197 2.07264C28.7172 3.07757 28.5162 3.78102 28.2147 5.18792C27.7123 8.80567 27.7123 12.5239 28.2147 15.9407C28.3152 16.9456 28.7172 18.3525 29.4207 19.3574C30.5261 21.0658 32.335 21.3673 33.8423 20.1614C34.8473 19.2569 35.2492 18.051 35.5507 16.7446C34.7468 16.4431 33.9428 16.1417 33.1389 15.8402C33.0384 15.8402 32.9379 16.5436 32.7369 17.2471Z" fill="white"/>
<path d="M22.989 20.7645C25.0994 20.7645 26.3053 19.5586 26.5063 17.3478C26.5063 16.9458 26.6068 16.8453 26.6068 16.4433C26.6068 11.4187 26.6068 0.866909 26.6068 0.56543C25.6018 0.56543 24.7979 0.56543 23.8935 0.56543C23.8935 0.866909 23.8935 11.3182 23.8935 16.3428C23.8935 16.6443 23.8935 16.9458 23.793 17.3478C23.6925 17.8502 23.4915 18.1517 23.0895 18.1517C22.5871 18.1517 22.3861 17.8502 22.3861 17.4483C22.3861 17.1468 22.3861 16.7448 22.3861 16.4433C22.3861 11.4187 22.3861 0.665923 22.3861 0.665923H19.5723C19.5723 0.665923 19.5723 11.3182 19.5723 16.2423C19.5723 16.5438 19.5723 17.1468 19.5723 17.4483C19.6728 19.7596 21.0797 20.7645 22.989 20.7645Z" fill="white"/>
<path d="M41.4794 0.56543L39.4696 8.00191V0.56543H36.6558C36.6558 13.1271 36.6558 13.1271 36.6558 20.463C37.6607 20.463 39.4696 20.463 39.4696 20.463V14.0315L40.0725 11.9211L41.2784 20.463C42.1829 20.463 43.2883 20.463 44.1927 20.463C44.1927 20.1616 42.0824 7.80093 42.0824 7.80093L44.3937 0.56543H41.4794Z" fill="white"/>
<path d="M51.0265 12.4243C49.9211 9.71099 48.9161 7.70113 47.9112 5.38979C47.8107 5.1888 47.7102 4.68634 47.6097 4.38486C47.5092 3.7819 47.8107 3.27944 48.3132 3.27944C48.7151 3.17894 49.0166 3.37993 49.2176 3.98289C49.3181 4.28437 49.6196 5.08831 49.6196 5.08831L52.0314 4.08338C52.0314 4.08338 51.6294 2.77697 51.2275 2.07352C50.4235 0.767111 49.2176 0.264645 47.8107 0.465631C46.6048 0.666617 45.8008 1.26958 45.3989 2.47549C44.6954 4.18387 45.1979 6.09324 45.9013 7.70113C47.0068 10.2135 47.5092 11.5199 48.8156 14.4342C49.2176 15.2381 49.5191 16.444 49.5191 17.1475C49.5191 17.9514 49.0166 18.1524 48.6146 18.0519C47.8107 17.8509 47.6097 16.1425 47.6097 16.1425L45.0974 17.047C45.0974 17.047 45.1979 18.2529 45.8008 19.1573C46.7053 20.6647 47.6097 20.9662 48.9161 20.9662C50.323 20.9662 51.5289 19.9613 52.0314 18.3534C52.4334 16.5445 52.0314 14.7356 51.0265 12.4243Z" fill="white"/>
<path d="M32.7369 17.2471C32.4354 18.051 31.6315 18.3525 31.2295 16.9456C31.129 16.5436 31.0285 15.6392 30.9281 14.8353C30.7271 11.72 30.7271 10.4136 30.9281 7.49926C31.129 5.28842 31.129 4.68546 31.2295 4.48447C31.4305 2.87658 32.335 2.97708 32.6364 4.0825C32.8374 4.88644 32.9379 5.38891 32.9379 5.38891C32.9379 5.38891 34.6463 4.78595 35.4502 4.48447C35.4502 4.48447 35.1488 3.17806 34.7468 2.37412C34.1438 1.1682 33.1389 0.364258 31.933 0.364258C30.7271 0.364258 29.8226 0.866723 29.2197 2.07264C28.7172 3.07757 28.5162 3.78102 28.2147 5.18792C27.7123 8.80567 27.7123 12.5239 28.2147 15.9407C28.3152 16.9456 28.7172 18.3525 29.4207 19.3574C30.5261 21.0658 32.335 21.3673 33.8423 20.1614C34.8473 19.2569 35.2492 18.051 35.5507 16.7446C34.7468 16.4431 33.9428 16.1417 33.1389 15.8402C33.0384 15.8402 32.9379 16.5436 32.7369 17.2471Z" fill="white"/>
<path d="M16.4577 9.7103C16.4577 9.7103 16.8597 9.30832 17.1612 7.90142C17.4626 6.39403 17.5631 4.68564 17.1612 3.17825C16.5582 1.36937 15.6538 0.56543 13.7444 0.56543C12.7395 0.56543 10.3276 0.56543 10.3276 0.56543V20.463C10.3276 20.463 12.84 20.463 14.2469 20.463C15.5533 20.463 16.3572 19.8601 17.0607 18.9557C17.6636 18.0512 17.8646 16.9458 17.9651 15.8404C18.0656 13.8305 18.1661 11.3182 16.4577 9.7103ZM13.3424 3.27874C14.3474 3.17825 14.6488 3.37923 14.7493 4.38416C14.8498 5.38909 14.8498 6.39403 14.7493 7.39896C14.6488 8.2029 14.3474 8.50438 13.3424 8.40389C13.3424 6.6955 13.3424 4.98712 13.3424 3.27874ZM14.8498 17.0463C14.6488 17.7497 14.1464 18.0512 13.2419 17.9507C13.2419 15.6394 13.2419 13.4285 13.2419 11.1172C14.2469 10.9162 14.6488 11.1172 14.8498 12.1221C15.4528 13.73 15.3523 15.6394 14.8498 17.0463Z" fill="white"/>
</svg>
