<svg width="94" height="29" viewBox="0 0 94 29" fill="none" xmlns="http://www.w3.org/2000/svg">
<path d="M93.2962 28.1773H88.4022V5.30322H5.09809V28.1773H0.204102V0.515625H93.2962V28.1773Z" fill="white"/>
<path d="M80.3162 20.4116H78.082V28.1782H80.3162V25.6248L80.6354 25.0928L82.0184 28.1782H84.359L82.1248 23.497L84.2526 20.4116H81.6993L80.3162 22.8586V20.4116ZM73.8263 21.9011C74.2519 21.9011 74.4647 22.1139 74.4647 22.7522V26.0503C74.4647 26.5823 74.2519 26.7951 73.8263 26.7951C73.4008 26.7951 73.188 26.4759 73.188 25.9439V22.7522C73.188 22.2203 73.4008 21.9011 73.8263 21.9011ZM73.8263 20.1988C72.1241 20.1988 70.9538 20.9436 70.9538 23.1778V25.412C70.9538 27.6462 72.2305 28.3909 73.8263 28.3909C75.5286 28.3909 76.6989 27.6462 76.6989 25.412V23.1778C76.8053 20.9436 75.5286 20.1988 73.8263 20.1988ZM64.1448 28.1782H67.5493C69.0387 28.1782 69.6771 27.1142 69.6771 26.0503C69.6771 24.88 69.2515 24.4545 68.294 24.1353C69.0387 23.8161 69.4643 23.3906 69.4643 22.3267C69.4643 21.05 68.6132 20.4116 67.3365 20.4116H64.1448V28.1782ZM66.2726 24.9864H66.8045C67.3365 24.9864 67.5493 25.3056 67.5493 25.9439C67.5493 26.4759 67.3365 26.7951 66.8045 26.7951H66.2726V24.9864ZM66.2726 21.9011H66.6981C67.2301 21.9011 67.4429 22.1139 67.4429 22.7522C67.4429 23.2842 67.2301 23.6033 66.6981 23.6033H66.2726V21.9011ZM59.038 22.965V22.6458C59.038 22.0075 59.2508 21.6883 59.7827 21.6883C60.3147 21.6883 60.5275 22.0075 60.5275 22.3267C60.5275 22.8586 60.3147 22.965 59.8891 23.1778L58.3996 23.9225C57.4421 24.4545 56.9102 25.0928 56.9102 26.2631C56.9102 27.7526 57.6549 28.3909 58.8252 28.3909C59.8891 28.3909 60.3147 27.859 60.6339 27.2206L60.7402 28.1782H62.8681C62.7617 27.859 62.6553 27.5398 62.6553 26.9015V22.433C62.6553 20.9436 61.8041 20.1988 59.7827 20.1988C57.7613 20.1988 56.9102 21.3691 56.9102 22.965H59.038ZM60.5275 24.3481V25.5184C60.5275 26.3695 60.3147 26.6887 59.7827 26.6887C59.3572 26.6887 59.1444 26.4759 59.1444 25.9439C59.1444 25.5184 59.2508 25.1992 59.5699 24.9864C59.7827 24.7736 60.4211 24.4545 60.5275 24.3481ZM50.6331 20.4116V22.2203H52.229V28.1782H54.4632V22.1139H56.059V20.3052H50.6331V20.4116ZM47.335 24.0289V25.412C47.335 26.1567 46.9094 26.4759 46.3775 26.4759C45.8455 26.4759 45.5263 26.1567 45.5263 25.412V20.1988C45.5263 19.6669 45.9519 19.4541 46.3775 19.4541C46.803 19.4541 47.335 19.6669 47.335 20.3052V21.2627H49.8884V20.518C49.8884 18.9221 48.8245 17.5391 46.4839 17.5391C44.0369 17.5391 43.0793 18.8158 43.0793 20.518V24.9864C43.0793 27.4334 44.1432 28.3909 46.4839 28.3909C48.8245 28.3909 49.8884 27.327 49.8884 24.9864V24.0289H47.335ZM34.1425 22.965V22.6458C34.1425 22.0075 34.3553 21.6883 34.8872 21.6883C35.4192 21.6883 35.632 22.0075 35.632 22.3267C35.632 22.8586 35.4192 22.965 34.9936 23.1778L33.5042 23.9225C32.5466 24.4545 32.0147 25.0928 32.0147 26.2631C32.0147 27.7526 32.7594 28.3909 33.9297 28.3909C34.9936 28.3909 35.4192 27.859 35.7384 27.2206L35.8448 28.1782H37.9726C37.8662 27.859 37.7598 27.5398 37.7598 26.9015V22.433C37.7598 20.9436 36.9087 20.1988 34.8872 20.1988C32.8658 20.1988 32.0147 21.3691 32.0147 22.965H34.1425ZM35.5256 24.3481V25.5184C35.5256 26.3695 35.3128 26.6887 34.7808 26.6887C34.3553 26.6887 34.1425 26.4759 34.1425 25.9439C34.1425 25.5184 34.2489 25.1992 34.5681 24.9864C34.8872 24.7736 35.4192 24.4545 35.5256 24.3481ZM26.0568 20.4116V28.1782H28.291V22.1139H31.0572V20.3052H26.0568V20.4116ZM18.7158 20.4116V28.1782H20.95L22.8651 23.0714L22.5459 24.7736V28.1782H24.5673V20.3052H22.3331L20.4181 25.412L20.6309 23.8161V20.4116H18.7158ZM10.5237 17.7518V22.6458C10.5237 25.8376 10.5237 26.2631 9.77897 26.2631C9.56619 26.2631 9.24702 26.2631 9.14062 26.1567V27.9654C9.56619 28.1782 9.99175 28.2846 10.5237 28.2846C12.226 28.2846 12.9707 27.2206 12.9707 23.2842V19.6669H14.673V28.1782H17.2263V17.7518H10.5237Z" fill="white"/>
</svg>
