<svg width="98" height="60" viewBox="0 0 98 60" fill="none" xmlns="http://www.w3.org/2000/svg">
<path d="M76.5806 45.945V37.4629H79.4079C79.4079 37.4629 79.4079 41.0981 79.4079 41.401C79.4079 41.7039 79.307 42.0069 79.307 42.0069H79.4079L82.5382 37.4629H85.2646V45.945H82.4372V41.9059C82.4372 41.603 82.5382 41.3 82.5382 41.3H82.4372L79.307 45.844H76.5806V45.945Z" fill="white"/>
<path d="M70.724 43.5223C71.7337 43.5223 72.4406 42.7145 72.4406 41.7047C72.4406 40.6949 71.7337 39.8871 70.724 39.8871C69.7142 39.8871 69.0073 40.6949 69.0073 41.7047C69.0073 42.7145 69.7142 43.5223 70.724 43.5223ZM70.724 37.2617C73.4503 37.2617 75.4699 39.1803 75.4699 41.8057C75.4699 44.3301 73.4503 46.2487 70.724 46.2487C67.9976 46.2487 65.978 44.3301 65.978 41.8057C65.978 39.1803 67.9976 37.2617 70.724 37.2617Z" fill="white"/>
<path d="M14.0752 54.8303C15.7918 54.8303 17.0036 53.6186 17.0036 51.902C17.0036 50.1854 15.7918 48.9736 14.0752 48.9736C12.3586 48.9736 11.2479 50.2863 11.2479 51.902C11.2479 53.6186 12.4596 54.8303 14.0752 54.8303ZM14.0752 47.459C16.7006 47.459 18.6192 49.3776 18.6192 52.003C18.6192 54.5274 16.7006 56.446 14.0752 56.446C11.4498 56.446 9.53125 54.5274 9.53125 52.003C9.53125 49.3776 11.4498 47.459 14.0752 47.459Z" fill="white"/>
<path d="M52.5471 48.8727C54.0618 48.8727 54.8696 49.8824 54.9706 51.1951H50.0227C50.3256 49.7815 51.2344 48.8727 52.5471 48.8727ZM56.4852 52.5078C56.4852 52.3059 56.4852 52.2049 56.4852 52.003C56.4852 49.3776 55.1725 47.459 52.3451 47.459C49.9217 47.459 48.2051 49.3776 48.2051 52.003C48.2051 52.2049 48.2051 52.4069 48.2051 52.5078C48.407 54.7293 49.8207 56.446 52.7491 56.446C54.1627 56.446 55.3745 56.042 56.2833 55.3352L55.5764 54.1235C54.9706 54.6284 53.9608 55.0323 52.7491 55.0323C50.9315 55.0323 50.0227 54.0225 49.8207 52.5078H56.4852Z" fill="white"/>
<path d="M63.9583 47.6611V51.0944H59.4144V47.6611H57.6978V56.1432H59.4144V52.508H63.9583V56.1432H65.675V47.6611H63.9583Z" fill="white"/>
<path d="M74.5605 47.6611H66.8862V49.1758H69.9155V56.1432H71.5312V49.1758H74.5605V47.6611Z" fill="white"/>
<path d="M85.3655 47.6611H83.6489V56.1432H85.3655V47.6611Z" fill="white"/>
<path d="M23.5671 51.7002C23.5671 51.5992 23.7691 51.5992 23.87 51.3973C23.971 51.1953 27.1013 47.6611 27.1013 47.6611H25.1827L22.1534 51.1953H21.4466V47.6611H19.73V56.1432H21.4466V52.508H22.2544L25.4857 56.2442H27.6062C27.6062 56.2442 23.971 52.2051 23.87 52.0032C23.6681 51.7002 23.5671 51.7002 23.5671 51.7002Z" fill="white"/>
<path d="M78.4984 54.9315C77.9935 54.9315 77.4886 54.9315 77.4886 54.9315V51.9022C77.4886 51.9022 77.8925 51.8012 78.4984 51.8012C79.912 51.8012 80.5179 52.3061 80.5179 53.4168C80.5179 54.2247 80.013 54.9315 78.4984 54.9315ZM78.8013 50.2865C77.9935 50.2865 77.4886 50.3875 77.4886 50.3875V47.6611H75.772V56.1432C75.772 56.1432 77.1856 56.2442 78.5993 56.2442C81.2247 56.2442 82.1335 54.6286 82.1335 53.1139C82.1335 51.7002 81.3257 50.2865 78.8013 50.2865Z" fill="white"/>
<path d="M4.38154 54.8303C2.66492 54.8303 1.75613 53.6186 1.75613 51.902C1.75613 50.1854 2.7659 48.9736 4.48252 48.9736C5.39131 48.9736 6.70401 49.8824 6.70401 51.3971V53.7196C6.19913 54.4264 5.39131 54.8303 4.38154 54.8303ZM6.80499 47.6609V48.7717H6.60304C6.09815 47.9639 4.9874 47.459 4.17958 47.459C1.65515 47.459 0.241471 49.3776 0.140494 52.003C0.0395169 54.5274 1.55418 56.446 4.07861 56.446C5.18936 56.446 5.8962 56.143 6.60304 55.3352H6.70401V56.143C6.70401 57.7587 5.59326 58.4655 4.28056 58.4655C3.06883 58.4655 2.16004 58.0616 1.65515 57.6577L1.15027 59.0714C1.65515 59.3743 2.66492 59.9802 4.38154 59.9802C6.80499 59.9802 8.5216 58.5665 8.5216 55.8401V47.8629H6.80499V47.6609Z" fill="white"/>
<path d="M34.3716 47.6611V53.8207C33.8667 54.4266 33.1599 54.8305 32.1501 54.8305C30.6354 54.8305 29.9286 53.6188 29.9286 51.9022V47.6611H28.3129V51.9022C28.212 54.4266 29.3227 56.3452 31.7462 56.3452C32.8569 56.3452 33.6647 56.0422 34.2706 55.2344H34.3716V56.0422C34.3716 57.6579 33.2608 58.3647 31.9481 58.3647C30.7364 58.3647 29.8276 57.9608 29.3227 57.5569L28.8178 58.9706C29.3227 59.2735 30.3325 59.8794 32.0491 59.8794C34.4726 59.8794 36.1892 58.4657 36.1892 55.7393V47.7621H34.3716V47.6611Z" fill="white"/>
<path d="M45.4788 47.6611C45.4788 47.6611 42.6514 51.5992 42.5504 51.7002C42.5504 51.8012 42.5504 51.9022 42.5504 51.9022H42.4494C42.4494 51.9022 42.4494 51.8012 42.3485 51.7002C42.2475 51.5992 39.2182 47.6611 39.2182 47.6611H37.6025V56.1432H39.3192V50.6904C39.3192 50.2865 39.2182 50.0846 39.2182 50.0846H39.3192L42.4494 54.2247H42.5504L45.4788 50.0846H45.5797C45.5797 50.0846 45.4788 50.2865 45.4788 50.6904V56.1432H47.1954V47.6611H45.4788Z" fill="white"/>
<path d="M62.5449 37.4629C62.5449 37.4629 60.1214 40.5932 60.0204 40.6942C59.9195 40.7951 59.9195 40.8961 59.9195 40.8961H59.8185C59.8185 40.8961 59.8185 40.7951 59.7175 40.6942C59.5156 40.4922 57.0921 37.4629 57.0921 37.4629H54.8706V45.945H57.597V42.4108C57.597 42.0069 57.496 41.8049 57.496 41.8049H57.597L59.8185 44.3293H59.9195L61.939 41.8049H62.04C62.04 41.8049 61.939 42.0069 61.939 42.4108V45.945H64.6654V37.4629H62.5449Z" fill="white"/>
<path d="M80.3167 20.5991V11.915H73.5513V20.4981C73.5513 23.5274 75.1669 26.3548 77.7923 27.8694L85.4666 32.3124V24.4362L81.2255 22.0128C80.6197 21.7098 80.3167 21.2049 80.3167 20.5991Z" fill="white"/>
<path d="M85.3652 28.9805L93.0395 24.5375C95.6649 23.0228 97.2805 20.1954 97.2805 17.1661V0H85.3652V6.76547H90.5151V17.0652C90.5151 17.671 90.2121 18.2769 89.7073 18.5798L85.4662 21.0033V28.9805H85.3652Z" fill="white"/>
<path d="M85.365 0L73.4497 11.9153H85.365V0Z" fill="white"/>
</svg>
