<svg width="135" height="17" viewBox="0 0 135 17" fill="none" xmlns="http://www.w3.org/2000/svg">
<path d="M13.6945 6.11426V16.2049H9.73029V11.8804H4.08432V16.2049H0V6.11426H3.96419V10.3187H9.61016V6.11426H13.6945Z" fill="white"/>
<path d="M57.6609 16.2049H42.0444V14.6433H43.486L47.8105 6.11426H51.6546L56.5798 14.6433H57.4207L57.6609 16.2049ZM52.1351 14.6433L48.6514 8.39667H48.5313L45.408 14.6433H52.1351Z" fill="white"/>
<path d="M35.9173 7.55578V10.9193H37.7192C38.3198 10.9193 39.0406 10.9193 39.5211 10.559C40.1217 10.0784 40.2419 9.59794 40.2419 9.23756C40.2419 8.99731 40.1217 8.39667 39.5211 8.03629C38.9205 7.67591 38.0796 7.55578 37.7192 7.55578H35.9173ZM35.9173 16.2049H32.1934V6.11426H38.6802C40.7224 6.11426 41.9236 6.23438 42.8847 6.83502C43.9658 7.55578 44.3262 8.5168 44.3262 9.23756C44.3262 9.95832 44.0859 11.0395 42.8847 11.7602C41.9236 12.3609 40.7224 12.6011 38.9205 12.6011H36.0374L35.9173 16.2049Z" fill="white"/>
<path d="M22.8244 5.51367C24.6263 5.51367 27.0288 5.87405 28.7106 7.19545C30.032 8.15647 30.6326 9.59799 30.6326 10.7993C30.6326 12.0005 30.032 13.4421 28.7106 14.4031C27.0288 15.7245 24.6263 16.0848 22.8244 16.0848C21.0225 16.0848 18.6199 15.6043 16.9381 14.4031C15.6167 13.4421 15.0161 12.0005 15.0161 10.7993C15.0161 9.59799 15.6167 8.15647 16.9381 7.19545C18.6199 5.87405 21.0225 5.51367 22.8244 5.51367ZM22.8244 6.71494C21.8634 6.71494 20.7822 6.9552 19.9413 8.03634C19.3407 8.87723 19.2206 9.95837 19.2206 10.7993C19.2206 11.6401 19.3407 12.7213 20.0614 13.5622C20.9023 14.6433 21.9835 14.8836 22.9445 14.8836C23.9055 14.8836 24.9867 14.6433 25.8275 13.5622C26.5483 12.7213 26.6684 11.6401 26.6684 10.7993C26.6684 9.95837 26.5483 8.87723 25.8275 8.03634C24.8665 6.9552 23.7854 6.71494 22.8244 6.71494Z" fill="white"/>
<path d="M92.1375 13.6823V6.11426H88.1733V16.2049H92.2577L97.7835 8.75705V16.2049H101.868V6.11426H97.7835L92.1375 13.6823Z" fill="white"/>
<path d="M63.787 6.11426L58.6216 16.2049H60.5436L61.9851 13.2018H67.1506L68.7123 16.2049H72.9167L67.2707 6.11426H63.787ZM62.7059 11.8804L64.5078 8.39667L66.4298 11.8804H62.7059Z" fill="white"/>
<path d="M111.358 6.11426H107.874L102.708 16.2049H104.51L105.952 13.2018H111.117L112.679 16.2049H116.883L111.358 6.11426ZM106.673 11.8804L108.475 8.39667L110.397 11.8804H106.673Z" fill="white"/>
<path d="M85.7705 11.3998C85.4101 11.1596 85.0497 11.0395 84.4491 10.9193C84.6893 10.7992 85.0497 10.6791 85.2899 10.559C86.251 9.95832 86.4912 9.11743 86.4912 8.63692C86.4912 8.03629 86.251 7.1954 85.2899 6.71489C84.5692 6.23438 83.488 6.11426 81.8063 6.11426H74.4785V16.2049H82.1666C83.9685 16.2049 85.0497 16.0848 85.7705 15.6043C86.7315 15.0037 86.9717 14.1628 86.9717 13.5621C86.9717 12.8414 86.7315 12.0005 85.7705 11.3998ZM81.0855 7.31553C81.4459 7.31553 82.1666 7.31553 82.6472 7.67591C83.1277 8.03629 83.2478 8.5168 83.2478 8.75705C83.2478 8.99731 83.1277 9.59794 82.6472 9.95832C82.1666 10.3187 81.566 10.3187 81.0855 10.3187H78.5628V7.1954L81.0855 7.31553ZM83.0075 14.5231C82.527 14.8835 81.8063 14.8835 81.3258 14.8835H78.5628V11.52H81.3258C81.8063 11.52 82.4069 11.6401 82.8874 11.8804C83.488 12.3609 83.488 12.8414 83.488 13.2018C83.488 13.5621 83.488 14.0426 83.0075 14.5231Z" fill="white"/>
<path fill-rule="evenodd" clip-rule="evenodd" d="M121.328 0.588867H130.097L134.542 8.39712L130.097 16.2054H121.328L116.883 8.39712L121.328 0.588867ZM126.974 12.6006L125.772 11.5194L124.331 12.7207C124.211 12.8408 124.091 12.8408 123.97 12.7207L123.73 12.4804C123.61 12.3603 123.61 12.2402 123.73 12.1201L125.052 10.7987V9.71752L124.451 10.0779L124.571 9.35714L123.61 9.95777L123.13 11.7597C123.13 11.8798 123.009 11.8798 122.889 11.8798L122.649 11.7597C122.529 11.7597 122.529 11.6396 122.529 11.5194L122.889 9.71752L121.328 9.23701C121.207 9.23701 121.207 9.11688 121.207 8.99676L121.328 8.7565C121.328 8.63638 121.448 8.63638 121.568 8.63638L123.49 9.11688L124.451 8.51625L123.73 8.15587L124.331 7.91561L123.37 7.31498L121.568 7.79549C121.448 7.91561 121.328 7.79549 121.328 7.67536L121.207 7.43511C121.087 7.31498 121.207 7.19485 121.328 7.19485L123.009 6.83447L122.649 5.27282C122.529 5.15269 122.649 5.03257 122.769 5.03257L123.009 4.91244C123.13 4.79231 123.25 4.91244 123.25 5.03257L123.73 6.83447L124.691 7.43511L124.571 6.59422L125.172 6.9546V5.87346L123.85 4.55206C123.73 4.43193 123.73 4.3118 123.85 4.19168L124.091 3.95142C124.211 3.8313 124.331 3.8313 124.451 3.95142L125.652 5.15269L126.853 4.07155C126.974 3.95142 127.094 3.95142 127.214 4.07155L127.454 4.3118C127.574 4.43193 127.574 4.55206 127.454 4.67219L126.013 5.99358V7.31498L126.733 6.83447L126.613 7.67536L127.574 7.07473L128.055 5.27282C128.055 5.15269 128.175 5.15269 128.295 5.15269L128.535 5.27282C128.655 5.27282 128.655 5.39295 128.655 5.51307L128.295 7.07473L129.977 7.43511C130.097 7.43511 130.097 7.55523 130.097 7.67536L129.977 7.91561C129.977 8.03574 129.857 8.03574 129.736 8.03574L127.935 7.55523L126.974 8.15587L127.694 8.39612L126.974 8.7565L127.935 9.35714L129.857 8.87663C129.977 8.7565 130.097 8.87663 130.097 8.99676L129.857 9.47727C129.977 9.59739 129.857 9.71752 129.736 9.71752L128.175 10.0779L128.655 11.6396C128.775 11.7597 128.655 11.8798 128.535 11.8798L128.295 11.9999C128.175 12.1201 128.055 11.9999 128.055 11.8798L127.574 10.0779L126.613 9.47727L126.733 10.198L126.133 9.71752V10.7987L127.574 11.9999C127.694 12.1201 127.694 12.2402 127.574 12.3603L127.334 12.6006C127.214 12.7207 127.094 12.7207 126.974 12.6006ZM125.773 4.55292L124.572 3.35165L125.773 2.27051L126.974 3.35165L125.773 4.55292ZM124.572 13.3233L125.773 14.5246L126.974 13.3233L125.773 12.2422L124.572 13.3233ZM131.179 5.27445L130.698 6.8361L129.137 6.47572L129.617 4.79395L131.179 5.27445ZM130.698 9.83887L129.137 10.3194L129.497 11.881L131.179 11.4005L130.698 9.83887ZM120.247 5.27347L121.809 4.91309L122.289 6.47474L120.607 6.95525L120.247 5.27347ZM121.929 11.881L122.289 10.3194L120.728 9.83887L120.247 11.5206L121.929 11.881Z" fill="white"/>
</svg>
