<svg width="62" height="52" viewBox="0 0 62 52" fill="none" xmlns="http://www.w3.org/2000/svg">
<path d="M54.4241 51.3705C53.2272 51.3705 52.7285 50.8718 52.7285 49.7746C52.7285 48.6774 53.327 48.1787 54.4241 48.1787C55.621 48.1787 56.1198 48.6774 56.1198 49.7746C56.1198 50.8718 55.621 51.3705 54.4241 51.3705Z" fill="white"/>
<path d="M23.1054 51.3716C22.2077 51.3716 20.911 51.2719 19.6144 50.8729C19.5146 50.8729 19.5146 50.7732 19.5146 50.7732L20.0134 48.1799V48.0801C20.0134 48.0801 20.0134 48.0801 20.1131 48.0801C21.2103 48.2796 22.2077 48.3793 22.6067 48.3793C23.5043 48.3793 24.5018 48.1799 25.0005 46.9829H22.3074C22.2077 46.9829 22.2077 46.8832 22.2077 46.8832V44.3896C22.2077 44.2899 22.3074 44.2899 22.3074 44.2899H25.0005C24.7013 43.3922 23.9033 42.8935 22.7064 42.8935H22.6067C22.2077 42.8935 21.5095 42.8935 20.8113 43.093C20.7116 43.093 20.7116 43.093 20.7116 42.9932L20.2128 40.3999C20.2128 40.3002 20.2128 40.3002 20.3126 40.3002C21.2103 40.1007 22.3074 40.001 23.3049 40.001C27.5938 40.001 29.4889 41.7963 29.4889 45.6863C29.2894 50.6734 26.1974 51.3716 23.1054 51.3716Z" fill="white"/>
<path d="M47.9409 51.3716C44.8489 51.3716 41.7568 50.6734 41.7568 45.6863C41.7568 41.7963 43.7517 40.001 47.9409 40.001C48.6391 40.001 49.7362 40.001 50.9331 40.3002C51.0329 40.3002 51.0329 40.3999 51.0329 40.3999L50.5342 43.1927C50.5342 43.2925 50.4344 43.2925 50.4344 43.2925C49.6365 43.1927 49.038 43.1927 48.6391 43.1927C47.8411 43.1927 47.3424 43.3922 46.9434 43.6914C46.4447 44.0904 46.2452 44.7886 46.2452 45.6863C46.2452 47.8806 47.4422 48.1799 48.7388 48.1799C49.1378 48.1799 50.0355 48.1799 51.0329 47.9804C51.1326 47.9804 51.1326 47.9804 51.1326 48.0801L51.6313 50.8729C51.6313 50.9726 51.6313 50.9726 51.5316 50.9726C49.9357 51.2719 48.6391 51.3716 47.9409 51.3716Z" fill="white"/>
<path d="M13.8292 45.2861C14.0287 45.2861 14.2282 45.2861 14.3279 45.2861C15.1258 45.2861 15.5248 44.8871 15.5248 44.0892C15.5248 42.992 14.9264 42.8923 14.3279 42.8923C14.2282 42.8923 14.0287 42.8923 13.8292 42.8923V45.2861ZM9.83949 51.0711C9.73975 51.0711 9.73975 50.9714 9.73975 50.9714V40.299C9.73975 40.1992 9.83949 40.1992 9.83949 40.1992H15.2256C17.3202 40.1992 19.5145 40.6979 19.5145 44.0892C19.5145 46.7822 18.1181 47.9791 15.2256 47.9791H13.8292V50.9714C13.8292 51.0711 13.7294 51.0711 13.7294 51.0711H9.83949Z" fill="white"/>
<path d="M37.1693 51.0711C37.0696 51.0711 37.0695 51.0711 37.0695 50.9714L36.7703 49.2758C36.4711 47.9791 36.2716 46.7822 35.1744 46.7822H34.7755V50.9714C34.7755 51.0711 34.6757 51.0711 34.6757 51.0711H30.7858C30.686 51.0711 30.686 50.9714 30.686 50.9714V40.299C30.686 40.1992 30.7858 40.1992 30.7858 40.1992H34.6757C34.7755 40.1992 34.7755 40.299 34.7755 40.299V44.0892C35.9724 44.0892 36.2716 43.0918 36.5708 41.7951L36.9698 40.299L37.0695 40.1992H40.9595H41.0592V40.299C40.9595 40.5982 40.5605 41.5956 39.8623 43.4907C39.4634 44.3884 38.9647 44.9869 38.1667 45.2861V45.3858C39.0644 45.6851 39.9621 46.1838 40.5605 48.0789L41.4582 51.0711V51.1709H41.3585H37.1693V51.0711Z" fill="white"/>
<path d="M44.0506 8.38237C44.0506 8.08314 44.4496 7.88366 45.1478 7.9834C45.7462 8.08314 46.1452 8.38237 46.0455 8.6816C46.0455 8.98082 45.6465 9.18031 44.9483 9.08057C44.2501 8.98082 43.9509 8.6816 44.0506 8.38237ZM45.1478 7.48469C44.5493 7.38495 44.1504 7.08572 44.2501 6.78649C44.2501 6.48726 44.6491 6.28778 45.3473 6.38752C45.9457 6.48726 46.3447 6.78649 46.245 7.08572C46.245 7.48469 45.846 7.58443 45.1478 7.48469ZM26.3962 12.6713C27.3936 14.6661 31.7823 13.17 34.6748 11.1752C37.1684 9.47954 38.9638 9.37979 39.7617 9.37979C40.0609 11.1752 41.2578 12.9705 43.5519 13.8682C46.5442 14.9654 51.2321 13.6687 53.7256 12.3721C54.1246 12.0728 53.9251 11.4744 53.4264 11.6739C52.9277 11.8734 51.8305 12.2723 50.6336 12.2723C49.4367 12.3721 48.7385 11.8734 48.539 11.7736C48.1401 11.4744 48.2398 10.9757 48.7385 10.9757C51.3318 10.7762 53.4264 9.97825 55.92 8.38237C57.9148 7.08572 59.1117 5.19061 59.8099 3.79422C60.5081 3.69448 61.1066 3.09602 61.1066 2.19834C61.1066 1.20092 60.4084 0.602462 59.7102 0.702205C58.9122 0.702205 58.3138 1.30066 58.3138 2.29808C58.3138 2.49757 58.3138 2.59731 58.4135 2.79679C57.1169 3.59473 54.3241 5.29036 51.0326 5.68932C46.9432 6.18804 45.9457 5.58958 43.5519 5.3901C42.5545 5.29036 41.7566 5.48984 41.1581 5.88881C40.3602 4.99113 38.7643 3.59473 36.171 2.59731C32.4805 1.10117 27.6929 0.901689 27.5931 3.19576C27.4934 5.48984 31.8821 6.38752 35.373 6.18804C37.7669 5.98855 39.3627 6.58701 40.1607 6.98598C40.0609 7.18546 39.9612 7.48469 39.8614 7.68417C39.8614 7.88366 39.7617 8.08314 39.7617 8.28263C38.6645 7.9834 36.4702 7.48469 33.4779 7.88366C29.588 8.38237 25.3988 10.6764 26.3962 12.6713Z" fill="white"/>
<path d="M0.962446 18.7547C3.55575 18.655 5.65034 18.655 7.74493 18.7547C7.4457 18.4555 7.14648 18.256 6.84725 17.857C3.45601 14.0668 3.55575 9.87763 3.65549 9.37892C3.75523 8.8802 4.45343 8.8802 4.45343 9.37892C4.45343 9.97737 4.8524 13.4684 7.4457 16.0617C11.4354 19.9516 20.4122 22.2457 29.788 21.4477C39.2635 20.6498 41.5576 15.9619 41.7571 15.0642C43.5525 15.8622 45.647 16.0617 47.6419 15.7624C47.8414 16.8596 47.8414 17.857 47.7416 18.8544C49.936 19.8519 52.1303 20.7496 55.6213 21.2483C55.721 21.2483 55.721 21.2483 55.8208 21.1485C56.2197 20.4503 56.8182 19.4529 57.3169 19.3532C57.4166 19.3532 57.4166 19.3532 57.4166 19.4529C57.4166 19.5526 56.8182 22.0462 56.7185 22.6447C56.7185 22.7444 56.6187 22.7444 56.519 22.7444C53.1277 23.2431 50.0357 23.0436 46.6445 22.0462C46.445 22.3454 46.3452 22.5449 46.1458 22.8441C48.6393 24.0411 50.8336 25.0385 54.6239 25.5372C54.7236 25.5372 54.7236 25.5372 54.8233 25.4374C55.2223 24.7392 55.8208 23.7418 56.3195 23.6421C56.4192 23.6421 56.4192 23.6421 56.4192 23.7418C56.4192 23.8416 55.8208 26.3351 55.721 26.9336C55.721 27.0333 55.6213 27.0333 55.5215 27.0333C51.7313 27.532 48.4398 27.2328 44.6496 26.0359C44.1509 25.8364 43.7519 25.6369 43.4527 25.4374C41.9566 26.4349 39.9617 27.3325 37.6677 27.931C29.9875 29.9259 19.8138 28.8287 13.0313 25.7367C9.83952 25.6369 7.54544 25.3377 3.15678 25.7367C3.05704 25.7367 3.05704 25.8364 3.05704 25.9362C3.05704 26.6344 2.95729 27.532 2.55832 27.8313C2.55832 27.8313 2.35884 27.8313 2.35884 27.7315C2.35884 27.6318 1.36142 24.839 1.16193 24.3403C1.16193 24.2405 1.16193 24.1408 1.26167 24.1408C4.45343 23.1434 6.74751 22.6447 9.54029 22.2457C7.4457 21.6472 5.45085 21.0488 2.2591 20.5501C2.15936 20.5501 2.15936 20.5501 2.05961 20.6498C1.86013 21.348 1.5609 22.2457 1.16193 22.4452C1.16193 22.4452 0.962446 22.4452 0.962446 22.3454C0.962446 22.2457 0.663219 19.3532 0.563477 18.7547C0.862704 18.8544 0.962446 18.7547 0.962446 18.7547Z" fill="white"/>
</svg>
