<svg width="72" height="21" viewBox="0 0 72 21" fill="none" xmlns="http://www.w3.org/2000/svg">
<path d="M40.0116 2.26726L35.5067 12.0962H35.0972V0.117188H28.647V20.2869H34.0733C35.5067 20.2869 36.8377 19.4678 37.452 18.1368L41.9569 8.30793H42.3665V20.2869H48.8167V0.117188H43.3903C41.9569 0.117188 40.6259 0.936262 40.0116 2.26726Z" fill="white"/>
<path d="M15.9518 2.77918L13.2898 12.0962H12.8802L10.1159 2.77918C9.70631 1.24341 8.27293 0.117188 6.63478 0.117188H0.18457V20.2869H6.63478V8.41032H7.04432L10.7302 20.3893H15.3375L19.0233 8.41032H19.4328V20.3893H25.883V0.117188H19.4328C17.7947 0.117188 16.3613 1.24341 15.9518 2.77918Z" fill="white"/>
<path d="M51.582 9.33105V20.3886H58.0322V13.9383H64.892C67.8611 13.9383 70.4207 11.993 71.3422 9.33105H51.582Z" fill="white"/>
<path d="M50.6602 0.117188C51.4792 4.82687 55.677 8.41032 60.5914 8.41032H71.6489C71.7513 8.00078 71.7513 7.48886 71.7513 7.07932C71.7513 3.2911 68.6798 0.219572 64.8916 0.219572H50.6602V0.117188Z" fill="white"/>
</svg>
